<?xml version="1.0" encoding="UTF-8" standalone="no"?>
<svg
   xmlns:dc="http://purl.org/dc/elements/1.1/"
   xmlns:cc="http://creativecommons.org/ns#"
   xmlns:rdf="http://www.w3.org/1999/02/22-rdf-syntax-ns#"
   xmlns:svg="http://www.w3.org/2000/svg"
   xmlns="http://www.w3.org/2000/svg"
   xmlns:sodipodi="http://sodipodi.sourceforge.net/DTD/sodipodi-0.dtd"
   xmlns:inkscape="http://www.inkscape.org/namespaces/inkscape"
   inkscape:version="0.92.5 (2060ec1f9f, 2020-04-08)"
   sodipodi:docname="Fig_3_v2.svg"
   viewBox="0 0 269.38397 133.49083"
   height="133.49083"
   width="269.38397"
   xml:space="preserve"
   id="svg2979"
   version="1.1"><metadata
     id="metadata2985"><rdf:RDF><cc:Work
         rdf:about=""><dc:format>image/svg+xml</dc:format><dc:type
           rdf:resource="http://purl.org/dc/dcmitype/StillImage" /><dc:title></dc:title></cc:Work></rdf:RDF></metadata><defs
     id="defs2983"><clipPath
       id="clipPath2997"
       clipPathUnits="userSpaceOnUse"><path
         id="path2995"
         d="m 35.965625,28.965625 h 69.043135 v 52.64 H 35.965625 Z" /></clipPath><clipPath
       id="clipPath3007"
       clipPathUnits="userSpaceOnUse"><path
         id="path3005"
         d="m 35.965625,28.965625 h 69.043135 v 52.64 H 35.965625 Z" /></clipPath><clipPath
       id="clipPath3099"
       clipPathUnits="userSpaceOnUse"><path
         id="path3097"
         d="m 35.965625,28.965625 h 69.043135 v 52.64 H 35.965625 Z" /></clipPath><clipPath
       id="clipPath3121"
       clipPathUnits="userSpaceOnUse"><path
         id="path3119"
         d="m 120.79486,28.965625 h 69.04313 v 52.64 h -69.04313 z" /></clipPath><clipPath
       id="clipPath3131"
       clipPathUnits="userSpaceOnUse"><path
         id="path3129"
         d="m 120.79486,28.965625 h 69.04313 v 52.64 h -69.04313 z" /></clipPath><clipPath
       id="clipPath3201"
       clipPathUnits="userSpaceOnUse"><path
         id="path3199"
         d="m 120.79486,28.965625 h 69.04313 v 52.64 h -69.04313 z" /></clipPath><clipPath
       id="clipPath3754"
       clipPathUnits="userSpaceOnUse"><path
         inkscape:connector-curvature="0"
         id="path3752"
         d="M 38.965625,28.965625 H 106.4182 v 52.64 H 38.965625 Z" /></clipPath><clipPath
       id="clipPath3764"
       clipPathUnits="userSpaceOnUse"><path
         inkscape:connector-curvature="0"
         id="path3762"
         d="M 38.965625,28.965625 H 106.4182 v 52.64 H 38.965625 Z" /></clipPath><clipPath
       id="clipPath3860"
       clipPathUnits="userSpaceOnUse"><path
         inkscape:connector-curvature="0"
         id="path3858"
         d="M 38.965625,28.965625 H 106.4182 v 52.64 H 38.965625 Z" /></clipPath><clipPath
       id="clipPath3884"
       clipPathUnits="userSpaceOnUse"><path
         inkscape:connector-curvature="0"
         id="path3882"
         d="m 122.20431,28.965625 h 67.45258 v 52.64 h -67.45258 z" /></clipPath><clipPath
       id="clipPath3894"
       clipPathUnits="userSpaceOnUse"><path
         inkscape:connector-curvature="0"
         id="path3892"
         d="m 122.20431,28.965625 h 67.45258 v 52.64 h -67.45258 z" /></clipPath><clipPath
       id="clipPath3966"
       clipPathUnits="userSpaceOnUse"><path
         inkscape:connector-curvature="0"
         id="path3964"
         d="m 122.20431,28.965625 h 67.45258 v 52.64 h -67.45258 z" /></clipPath><clipPath
       id="clipPath5522"
       clipPathUnits="userSpaceOnUse"><path
         inkscape:connector-curvature="0"
         id="path5520"
         d="M 38.965625,28.965625 H 106.4182 v 52.64 H 38.965625 Z" /></clipPath><clipPath
       id="clipPath5532"
       clipPathUnits="userSpaceOnUse"><path
         inkscape:connector-curvature="0"
         id="path5530"
         d="M 38.965625,28.965625 H 106.4182 v 52.64 H 38.965625 Z" /></clipPath><clipPath
       id="clipPath5628"
       clipPathUnits="userSpaceOnUse"><path
         inkscape:connector-curvature="0"
         id="path5626"
         d="M 38.965625,28.965625 H 106.4182 v 52.64 H 38.965625 Z" /></clipPath><clipPath
       id="clipPath5652"
       clipPathUnits="userSpaceOnUse"><path
         inkscape:connector-curvature="0"
         id="path5650"
         d="m 122.20431,28.965625 h 67.45258 v 52.64 h -67.45258 z" /></clipPath><clipPath
       id="clipPath5662"
       clipPathUnits="userSpaceOnUse"><path
         inkscape:connector-curvature="0"
         id="path5660"
         d="m 122.20431,28.965625 h 67.45258 v 52.64 h -67.45258 z" /></clipPath><clipPath
       id="clipPath5734"
       clipPathUnits="userSpaceOnUse"><path
         inkscape:connector-curvature="0"
         id="path5732"
         d="m 122.20431,28.965625 h 67.45258 v 52.64 h -67.45258 z" /></clipPath></defs><sodipodi:namedview
     inkscape:current-layer="g3970"
     inkscape:window-maximized="0"
     inkscape:window-y="27"
     inkscape:window-x="72"
     inkscape:cy="66.65155"
     inkscape:cx="-16.59037"
     inkscape:zoom="2.3197049"
     showgrid="false"
     id="namedview2981"
     inkscape:window-height="1080"
     inkscape:window-width="1920"
     inkscape:pageshadow="2"
     inkscape:pageopacity="0"
     guidetolerance="10"
     gridtolerance="10"
     objecttolerance="10"
     borderopacity="1"
     bordercolor="#666666"
     pagecolor="#ffffff" /><g
     transform="matrix(1.3333333,0,0,-1.3333333,0,133.49083)"
     inkscape:label="Fig_3_v2"
     inkscape:groupmode="layer"
     id="g2987"><g
       transform="translate(-1.9961659,-94.808452)"
       id="g3744"
       inkscape:label="Fig_3_v2"><g
         id="g3970"><g
           transform="translate(1.0465703,100.74329)"
           inkscape:label="Fig_3_v2"
           id="g5512"><path
             inkscape:connector-curvature="0"
             id="path5514"
             style="fill:#ffffff;fill-opacity:1;fill-rule:nonzero;stroke:none"
             d="M 38.965625,28.965625 H 106.4182 v 52.64 H 38.965625 Z" /><g
             id="g5516"><g
               clip-path="url(#clipPath5522)"
               id="g5518"><path
                 inkscape:connector-curvature="0"
                 id="path5524"
                 style="fill:none;stroke:#cccccc;stroke-width:1;stroke-linecap:square;stroke-linejoin:round;stroke-miterlimit:10;stroke-dasharray:none;stroke-opacity:1"
                 d="m 38.965625,41.15081 h 67.265215 v 0" /></g></g><g
             id="g5526"><g
               clip-path="url(#clipPath5532)"
               id="g5528"><path
                 inkscape:connector-curvature="0"
                 id="path5534"
                 style="fill:#808080;fill-opacity:0.2;fill-rule:nonzero;stroke:#808080;stroke-width:0.80000001;stroke-linecap:butt;stroke-linejoin:round;stroke-miterlimit:10;stroke-dasharray:none;stroke-opacity:0.2"
                 d="m 38.965644,30.602206 v -0.767109 l 0.374736,0.04617 0.374737,0.05011 0.374736,0.05435 0.374737,0.05893 0.374736,0.06388 0.374737,0.06921 0.374737,0.07497 0.374736,0.08118 0.374737,0.08787 0.374736,0.09508 0.374737,0.102846 0.374736,0.11121 0.374737,0.120209 0.374736,0.129884 0.374737,0.140281 0.374737,0.151444 0.374736,0.163417 0.374737,0.176251 0.374736,0.189992 0.374737,0.204692 0.374736,0.220398 0.374737,0.237165 0.374736,0.255038 0.374737,0.274072 0.374737,0.294312 0.374736,0.31581 0.374737,0.338606 0.374736,0.362747 0.374737,0.388267 0.374736,0.415203 0.374737,0.443578 0.374736,0.473411 0.374737,0.504714 0.374737,0.537481 0.374736,0.571698 0.374737,0.60733 0.374736,0.644327 0.374737,0.682615 0.374736,0.722094 0.374737,0.762633 0.374736,0.804073 0.374737,0.84621 0.374736,0.888802 0.374737,0.931556 0.374737,0.974129 0.374736,1.016116 0.374737,1.057051 0.374736,1.096394 0.374737,1.133528 0.374736,1.167753 0.374737,1.198265 0.374736,1.224152 0.374737,1.24436 0.374737,1.257654 0.374736,1.262547 0.374737,1.257175 0.374736,1.239085 0.374737,1.204877 0.374736,1.149648 0.374737,1.066371 0.374736,0.946037 0.374737,0.781115 0.374737,0.574981 0.374736,0.349991 0.374737,0.136766 0.374736,-0.04667 0.374737,-0.198835 0.374736,-0.325387 0.374737,-0.432266 0.374736,-0.523741 0.374737,-0.602549 0.374736,-0.670435 0.374737,-0.728559 0.374737,-0.777777 0.374736,-0.818796 0.374737,-0.852261 0.374736,-0.878807 0.374737,-0.89907 0.374736,-0.913696 0.374737,-0.923335 0.374736,-0.928631 0.374737,-0.930208 0.374737,-0.92866 0.374736,-0.92454 0.374737,-0.918345 0.374736,-0.910519 0.374737,-0.901438 0.374736,-0.891412 0.374737,-0.880685 0.374736,-0.869431 0.374737,-0.857754 0.374737,-0.845688 0.374736,-0.833194 0.374737,-0.820159 0.374736,-0.806391 0.374737,-0.791631 0.374736,-0.775562 0.374737,-0.757836 0.374736,-0.738121 0.374737,-0.716151 0.374736,-0.691781 0.374737,-0.665018 0.374737,-0.636045 0.374736,-0.605195 0.374737,-0.572915 0.374736,-0.539714 0.374737,-0.506119 0.374736,-0.472621 0.374737,-0.439663 0.374736,-0.407609 0.374737,-0.376754 0.374737,-0.347312 0.374736,-0.319435 0.374737,-0.293212 0.374736,-0.268687 0.374737,-0.245862 0.374736,-0.224708 0.374737,-0.205175 0.374736,-0.187193 0.374737,-0.170683 0.374737,-0.15556 0.374736,-0.141729 0.374737,-0.129103 0.374736,-0.117589 0.374737,-0.107097 0.374736,-0.09755 0.374737,-0.08885 0.374736,-0.08094 0.374737,-0.07375 0.374736,-0.0672 0.374737,-0.06124 0.374737,-0.05582 0.374736,-0.05087 0.374737,-0.04636 0.374736,-0.04225 0.374737,-0.03848 0.374736,-0.03504 0.374737,-0.03188 0.374736,-0.02898 0.374737,-0.02631 0.374737,-0.02385 0.374736,-0.02158 0.374737,-0.01947 0.374736,-0.01751 0.374737,-0.01569 0.374736,-0.01398 0.374737,-0.01238 0.374736,-0.01087 0.374737,-0.0094 0.374737,-0.0081 0.374736,-0.0068 0.374737,-0.0055 0.374736,-0.0043 0.374737,-0.0031 0.374736,-0.002 0.374737,-8.31e-4 0.374736,2.98e-4 0.374737,0.0014 0.374736,0.0026 0.374737,0.0037 0.374737,0.0049 0.374736,0.0061 0.374735,0.0073 0.37474,0.0085 0.37474,0.0099 0.37473,0.01123 0.37474,0.01268 0.37473,0.01419 0.37474,0.0158 0.37474,0.01749 0.37473,0.0193 0.37474,0.02122 0.37474,0.02327 0.37473,0.02547 0.37474,0.02782 0.37474,0.03035 0.37473,0.03307 0.37474,0.03599 0.37474,0.03913 v 0.733296 0 l -0.37474,-0.07001 -0.37474,-0.06415 -0.37473,-0.0587 -0.37474,-0.05364 -0.37474,-0.04894 -0.37473,-0.04454 -0.37474,-0.04045 -0.37474,-0.03661 -0.37473,-0.03301 -0.37474,-0.02962 -0.37474,-0.02642 -0.37473,-0.0234 -0.37474,-0.02052 -0.37473,-0.01778 -0.37474,-0.01515 -0.37474,-0.01261 -0.374735,-0.01016 -0.374736,-0.0078 -0.374737,-0.0054 -0.374737,-0.0031 -0.374736,-8.77e-4 -0.374737,0.0014 -0.374736,0.0037 -0.374737,0.0059 -0.374736,0.0082 -0.374737,0.0106 -0.374736,0.01301 -0.374737,0.0155 -0.374736,0.01807 -0.374737,0.02075 -0.374737,0.02354 -0.374736,0.02646 -0.374737,0.02954 -0.374736,0.03279 -0.374737,0.03622 -0.374736,0.03986 -0.374737,0.04374 -0.374736,0.04786 -0.374737,0.05226 -0.374737,0.05696 -0.374736,0.06199 -0.374737,0.06737 -0.374736,0.07313 -0.374737,0.07931 -0.374736,0.08594 -0.374737,0.09304 -0.374736,0.100665 -0.374737,0.108834 -0.374737,0.117594 -0.374736,0.126979 -0.374737,0.137031 -0.374736,0.147788 -0.374737,0.159293 -0.374736,0.171587 -0.374737,0.18471 -0.374736,0.198706 -0.374737,0.213616 -0.374736,0.22948 -0.374737,0.246343 -0.374737,0.264246 -0.374736,0.283233 -0.374737,0.303351 -0.374736,0.324645 -0.374737,0.347173 -0.374736,0.370992 -0.374737,0.396177 -0.374736,0.422808 -0.374737,0.450991 -0.374737,0.480849 -0.374736,0.512532 -0.374737,0.546223 -0.374736,0.582129 -0.374737,0.620487 -0.374736,0.66155 -0.374737,0.705557 -0.374736,0.752709 -0.374737,0.803119 -0.374737,0.856755 -0.374736,0.913385 -0.374737,0.972539 -0.374736,1.033489 -0.374737,1.095264 -0.374736,1.156692 -0.374737,1.216454 -0.374736,1.273155 -0.374737,1.325371 -0.374736,1.371696 -0.374737,1.410771 -0.374737,1.441313 -0.374736,1.462134 -0.374737,1.472162 -0.374736,1.470468 -0.374737,1.45629 -0.374736,1.429055 -0.374737,1.388403 -0.374736,1.334213 -0.374737,1.266612 -0.374737,1.185992 -0.374736,1.093009 -0.374737,0.988581 -0.374736,0.873882 -0.374737,0.750317 -0.374736,0.619508 -0.374737,0.483263 -0.374736,0.343553 -0.374737,0.202496 -0.374737,0.06234 -0.374736,-0.07451 L 65.197202,73.490692 64.822466,73.163185 64.447729,72.726011 64.072993,72.196064 63.698256,71.596203 63.32352,70.956838 62.948783,70.315564 62.574047,69.709863 62.19931,69.160448 61.824573,68.658505 61.449837,68.173812 61.0751,67.673541 60.700364,67.133011 60.325627,66.537002 59.950891,65.877615 59.576154,65.151992 59.201418,64.360673 58.826681,63.506513 58.451944,62.593969 58.077208,61.628611 57.702471,60.616767 57.327735,59.565259 56.952998,58.481186 56.578262,57.37175 56.203525,56.244109 55.828789,55.105253 55.454052,53.961906 55.079315,52.820437 54.704579,51.686796 54.329842,50.566464 53.955106,49.464414 53.580369,48.385089 53.205633,47.33239 52.830896,46.309674 52.45616,45.319768 52.081423,44.364977 51.706687,43.447117 51.33195,42.567534 50.957213,41.727144 50.582477,40.926466 50.20774,40.165658 49.833004,39.444556 49.458267,38.762714 49.083531,38.119441 48.708794,37.513836 48.334058,36.944822 47.959321,36.411184 47.584584,35.911593 47.209848,35.444637 46.835111,35.008843 46.460375,34.602704 46.085638,34.224695 45.710902,33.873291 45.336165,33.546981 44.961429,33.244284 44.586692,32.963753 44.211955,32.703986 43.837219,32.463636 43.462482,32.24141 43.087746,32.036076 42.713009,31.846463 42.338273,31.671466 41.963536,31.51004 41.5888,31.361206 l -0.374737,-0.13716 -0.374737,-0.126343 -0.374736,-0.116325 -0.374737,-0.107049 -0.374736,-0.09846 -0.374737,-0.09051 -0.374736,-0.08315 z" /></g></g><g
             id="g5536"><path
               inkscape:connector-curvature="0"
               id="path5538"
               style="fill:#323034;fill-opacity:1;fill-rule:nonzero;stroke:#323034;stroke-width:0.80000001;stroke-linecap:butt;stroke-linejoin:round;stroke-miterlimit:10;stroke-dasharray:none;stroke-opacity:1"
               d="m 38.965625,28.965625 v -3.5" /><g
               transform="translate(36.965625,18.0125)"
               id="g5540"><text
                 id="text5544"
                 style="font-variant:normal;font-weight:normal;font-size:5px;font-family:'DejaVu Sans';-inkscape-font-specification:DejaVuSans;writing-mode:lr-tb;fill:#323034;fill-opacity:1;fill-rule:nonzero;stroke:none"
                 transform="matrix(1,0,0,-1,0,0.28125)"><tspan
                   id="tspan5542"
                   y="0"
                   x="0">0</tspan></text>
</g><path
               inkscape:connector-curvature="0"
               id="path5546"
               style="fill:#323034;fill-opacity:1;fill-rule:nonzero;stroke:#323034;stroke-width:0.80000001;stroke-linecap:butt;stroke-linejoin:round;stroke-miterlimit:10;stroke-dasharray:none;stroke-opacity:1"
               d="m 55.82877,28.965625 v -3.5" /><g
               transform="translate(52.32877,18.0125)"
               id="g5548"><text
                 id="text5552"
                 style="font-variant:normal;font-weight:normal;font-size:5px;font-family:'DejaVu Sans';-inkscape-font-specification:DejaVuSans;writing-mode:lr-tb;fill:#323034;fill-opacity:1;fill-rule:nonzero;stroke:none"
                 transform="matrix(1,0,0,-1,0,0.28125)"><tspan
                   id="tspan5550"
                   sodipodi:role="line"
                   y="0"
                   x="0 3.1811523">90</tspan></text>
</g><path
               inkscape:connector-curvature="0"
               id="path5554"
               style="fill:#323034;fill-opacity:1;fill-rule:nonzero;stroke:#323034;stroke-width:0.80000001;stroke-linecap:butt;stroke-linejoin:round;stroke-miterlimit:10;stroke-dasharray:none;stroke-opacity:1"
               d="m 72.691915,28.965625 v -3.5" /><g
               transform="translate(67.691915,18.0125)"
               id="g5556"><text
                 id="text5560"
                 style="font-variant:normal;font-weight:normal;font-size:5px;font-family:'DejaVu Sans';-inkscape-font-specification:DejaVuSans;writing-mode:lr-tb;fill:#323034;fill-opacity:1;fill-rule:nonzero;stroke:none"
                 transform="matrix(1,0,0,-1,0,0.28125)"><tspan
                   id="tspan5558"
                   sodipodi:role="line"
                   y="0"
                   x="0 3.1811523 6.3623047">180</tspan></text>
</g><path
               inkscape:connector-curvature="0"
               id="path5562"
               style="fill:#323034;fill-opacity:1;fill-rule:nonzero;stroke:#323034;stroke-width:0.80000001;stroke-linecap:butt;stroke-linejoin:round;stroke-miterlimit:10;stroke-dasharray:none;stroke-opacity:1"
               d="m 89.55506,28.965625 v -3.5" /><g
               transform="translate(84.55506,18.0125)"
               id="g5564"><text
                 id="text5568"
                 style="font-variant:normal;font-weight:normal;font-size:5px;font-family:'DejaVu Sans';-inkscape-font-specification:DejaVuSans;writing-mode:lr-tb;fill:#323034;fill-opacity:1;fill-rule:nonzero;stroke:none"
                 transform="matrix(1,0,0,-1,0,0.28125)"><tspan
                   id="tspan5566"
                   sodipodi:role="line"
                   y="0"
                   x="0 3.1811523 6.3623047">270</tspan></text>
</g><path
               inkscape:connector-curvature="0"
               id="path5570"
               style="fill:#323034;fill-opacity:1;fill-rule:nonzero;stroke:#323034;stroke-width:0.80000001;stroke-linecap:butt;stroke-linejoin:round;stroke-miterlimit:10;stroke-dasharray:none;stroke-opacity:1"
               d="m 106.4182,28.965625 v -3.5" /><g
               transform="translate(101.4182,18.0125)"
               id="g5572"><text
                 id="text5576"
                 style="font-variant:normal;font-weight:normal;font-size:5px;font-family:'DejaVu Sans';-inkscape-font-specification:DejaVuSans;writing-mode:lr-tb;fill:#323034;fill-opacity:1;fill-rule:nonzero;stroke:none"
                 transform="matrix(1,0,0,-1,0,0.28125)"><tspan
                   id="tspan5574"
                   sodipodi:role="line"
                   y="0"
                   x="0 3.1811523 6.3623047">360</tspan></text>
</g><path
               inkscape:connector-curvature="0"
               id="path5578"
               style="fill:#323034;fill-opacity:1;fill-rule:nonzero;stroke:#323034;stroke-width:0.60000002;stroke-linecap:butt;stroke-linejoin:round;stroke-miterlimit:10;stroke-dasharray:none;stroke-opacity:1"
               d="m 47.397197,28.965625 v -2" /><path
               inkscape:connector-curvature="0"
               id="path5580"
               style="fill:#323034;fill-opacity:1;fill-rule:nonzero;stroke:#323034;stroke-width:0.60000002;stroke-linecap:butt;stroke-linejoin:round;stroke-miterlimit:10;stroke-dasharray:none;stroke-opacity:1"
               d="m 64.260342,28.965625 v -2" /><path
               inkscape:connector-curvature="0"
               id="path5582"
               style="fill:#323034;fill-opacity:1;fill-rule:nonzero;stroke:#323034;stroke-width:0.60000002;stroke-linecap:butt;stroke-linejoin:round;stroke-miterlimit:10;stroke-dasharray:none;stroke-opacity:1"
               d="m 81.123487,28.965625 v -2" /><path
               inkscape:connector-curvature="0"
               id="path5584"
               style="fill:#323034;fill-opacity:1;fill-rule:nonzero;stroke:#323034;stroke-width:0.60000002;stroke-linecap:butt;stroke-linejoin:round;stroke-miterlimit:10;stroke-dasharray:none;stroke-opacity:1"
               d="m 97.986632,28.965625 v -2" /><g
               transform="translate(44.168477,8.653125)"
               id="g5586"><text
                 id="text5590"
                 style="font-variant:normal;font-weight:normal;font-size:7px;font-family:'DejaVu Sans';-inkscape-font-specification:DejaVuSans;writing-mode:lr-tb;fill:#000000;fill-opacity:1;fill-rule:nonzero;stroke:none"
                 transform="scale(1,-1)"><tspan
                   id="tspan5588"
                   sodipodi:role="line"
                   y="0"
                   x="0 5.2639999 9.7019997 14.007 16.233 21.021 25.459 29.903999 31.85 36.154999 38.381001 41.111 45.556 49.861 54.306">Hue Angle (deg)</tspan></text>
</g><path
               inkscape:connector-curvature="0"
               id="path5592"
               style="fill:#323034;fill-opacity:1;fill-rule:nonzero;stroke:#323034;stroke-width:0.80000001;stroke-linecap:butt;stroke-linejoin:round;stroke-miterlimit:10;stroke-dasharray:none;stroke-opacity:1"
               d="m 38.965625,28.965625 h -3.5" /><g
               transform="translate(16.965625,26.989062)"
               id="g5594"><text
                 id="text5598"
                 style="font-variant:normal;font-weight:normal;font-size:5px;font-family:'DejaVu Sans';-inkscape-font-specification:DejaVuSans;writing-mode:lr-tb;fill:#323034;fill-opacity:1;fill-rule:nonzero;stroke:none"
                 transform="matrix(1,0,0,-1,0,0.28125)"><tspan
                   id="tspan5596"
                   sodipodi:role="line"
                   y="0"
                   x="0 3.1811523 4.7705078 7.9516602 11.132812">0.000</tspan></text>
</g><path
               inkscape:connector-curvature="0"
               id="path5600"
               style="fill:#323034;fill-opacity:1;fill-rule:nonzero;stroke:#323034;stroke-width:0.80000001;stroke-linecap:butt;stroke-linejoin:round;stroke-miterlimit:10;stroke-dasharray:none;stroke-opacity:1"
               d="m 38.965625,50.898958 h -3.5" /><g
               transform="translate(16.965625,48.922396)"
               id="g5602"><text
                 id="text5606"
                 style="font-variant:normal;font-weight:normal;font-size:5px;font-family:'DejaVu Sans';-inkscape-font-specification:DejaVuSans;writing-mode:lr-tb;fill:#323034;fill-opacity:1;fill-rule:nonzero;stroke:none"
                 transform="matrix(1,0,0,-1,0,0.28125)"><tspan
                   id="tspan5604"
                   sodipodi:role="line"
                   y="0"
                   x="0 3.1811523 4.7705078 7.9516602 11.132812">0.005</tspan></text>
</g><path
               inkscape:connector-curvature="0"
               id="path5608"
               style="fill:#323034;fill-opacity:1;fill-rule:nonzero;stroke:#323034;stroke-width:0.80000001;stroke-linecap:butt;stroke-linejoin:round;stroke-miterlimit:10;stroke-dasharray:none;stroke-opacity:1"
               d="m 38.965625,72.832292 h -3.5" /><g
               transform="translate(16.965625,70.855729)"
               id="g5610"><text
                 id="text5614"
                 style="font-variant:normal;font-weight:normal;font-size:5px;font-family:'DejaVu Sans';-inkscape-font-specification:DejaVuSans;writing-mode:lr-tb;fill:#323034;fill-opacity:1;fill-rule:nonzero;stroke:none"
                 transform="matrix(1,0,0,-1,0,0.28125)"><tspan
                   id="tspan5612"
                   sodipodi:role="line"
                   y="0"
                   x="0 3.1811523 4.7705078 7.9516602 11.132812">0.010</tspan></text>
</g><g
               transform="rotate(90,-17.367031,29.879531)"
               id="g5616"><text
                 id="text5620"
                 style="font-variant:normal;font-weight:normal;font-size:7px;font-family:'DejaVu Sans';-inkscape-font-specification:DejaVuSans;writing-mode:lr-tb;fill:#000000;fill-opacity:1;fill-rule:nonzero;stroke:none"
                 transform="scale(1,-1)"><tspan
                   id="tspan5618"
                   sodipodi:role="line"
                   y="0"
                   x="0 4.1116252 6.988625 8.9346247 13.218625">Prior</tspan></text>
</g></g><g
             id="g5622"><g
               clip-path="url(#clipPath5628)"
               id="g5624"><path
                 inkscape:connector-curvature="0"
                 id="path5630"
                 style="fill:none;stroke:#808080;stroke-width:1;stroke-linecap:square;stroke-linejoin:round;stroke-miterlimit:10;stroke-dasharray:none;stroke-opacity:1"
                 d="m 38.965644,30.218652 2.248419,0.482248 1.873683,0.626984 1.498946,0.71463 1.498946,0.971023 1.498946,1.302096 1.12421,1.243218 1.12421,1.510171 1.124209,1.80739 1.498947,2.906923 1.498946,3.478158 1.873683,5.042804 4.871575,13.693358 1.124209,2.343775 0.749474,1.203727 0.749473,0.866866 0.749473,0.496858 0.749473,0.104733 0.749473,-0.296669 0.749473,-0.693412 0.749473,-1.07131 0.749473,-1.41692 1.12421,-2.674441 1.498946,-4.295932 4.496839,-13.52196 1.498946,-3.622827 1.498946,-2.962003 1.12421,-1.803171 1.124209,-1.480388 1.12421,-1.199075 1.498946,-1.235728 1.498947,-0.907892 1.498946,-0.661015 1.873682,-0.57549 2.24842,-0.440208 2.997892,-0.323897 3.747366,-0.158309 4.122107,0.03887 3.74736,0.254879 1.49895,0.192516 v 0" /></g></g><g
             id="g5632"><path
               inkscape:connector-curvature="0"
               id="path5634"
               style="fill:none;stroke:#000000;stroke-width:0.60000002;stroke-linecap:square;stroke-linejoin:miter;stroke-miterlimit:10;stroke-dasharray:none;stroke-opacity:1"
               d="m 38.965625,28.965625 v 52.64" /><path
               inkscape:connector-curvature="0"
               id="path5636"
               style="fill:none;stroke:#000000;stroke-width:0.60000002;stroke-linecap:square;stroke-linejoin:miter;stroke-miterlimit:10;stroke-dasharray:none;stroke-opacity:1"
               d="M 38.965625,28.965625 H 106.4182" /><path
               inkscape:connector-curvature="0"
               id="path5644"
               style="fill:#ffffff;fill-opacity:1;fill-rule:nonzero;stroke:none"
               d="m 122.20431,28.965625 h 67.45258 v 52.64 h -67.45258 z" /></g><g
             id="g5646"><g
               clip-path="url(#clipPath5652)"
               id="g5648"><path
                 inkscape:connector-curvature="0"
                 id="path5654"
                 style="fill:none;stroke:#cccccc;stroke-width:1;stroke-linecap:square;stroke-linejoin:round;stroke-miterlimit:10;stroke-dasharray:none;stroke-opacity:1"
                 d="m 122.20431,41.15081 h 67.26521 v 0" /></g></g><g
             id="g5656"><g
               clip-path="url(#clipPath5662)"
               id="g5658"><path
                 inkscape:connector-curvature="0"
                 id="path5664"
                 style="fill:#808080;fill-opacity:0.2;fill-rule:nonzero;stroke:#808080;stroke-width:0.80000001;stroke-linecap:butt;stroke-linejoin:round;stroke-miterlimit:10;stroke-dasharray:none;stroke-opacity:0.2"
                 d="m 122.20433,33.415328 v -2.455702 l 0.37473,0.09373 0.37474,0.101325 0.37473,0.109478 0.37474,0.118219 0.37474,0.127585 0.37473,0.137605 0.37474,0.14831 0.37474,0.159734 0.37473,0.171903 0.37474,0.184845 0.37474,0.198585 0.37473,0.21314 0.37474,0.22853 0.37474,0.244762 0.37473,0.261842 0.37474,0.279767 0.37474,0.298525 0.37473,0.318098 0.37474,0.338456 0.37474,0.35956 0.37473,0.381357 0.37474,0.403786 0.37474,0.42677 0.37473,0.450221 0.37474,0.474039 0.37474,0.498109 0.37473,0.522301 0.37474,0.546478 0.37473,0.570485 0.37474,0.594159 0.37474,0.617327 0.37473,0.639802 0.37474,0.661396 0.37474,0.681908 0.37473,0.701138 0.37474,0.718881 0.37474,0.734927 0.37473,0.749076 0.37474,0.761121 0.37474,0.770865 0.37473,0.778118 0.37474,0.782692 0.37474,0.784412 0.37473,0.783106 0.37474,0.778616 0.37474,0.770783 0.37473,0.759457 0.37474,0.744483 0.37474,0.725696 0.37473,0.702916 0.37474,0.675916 0.37474,0.644415 0.37473,0.608024 0.37474,0.566195 0.37474,0.518127 0.37473,0.462642 0.37474,0.397981 0.37473,0.321576 0.37474,0.229847 0.37474,0.118351 0.37473,-0.01694 0.37474,-0.17634 0.37474,-0.351935 0.37473,-0.527029 0.37474,-0.683537 0.37474,-0.810986 0.37473,-0.908183 0.37474,-0.979093 0.37474,-1.02883 0.37473,-1.061836 0.37474,-1.081503 0.37474,-1.09033 0.37473,-1.09017 0.37474,-1.082443 0.37474,-1.068281 0.37473,-1.04862 0.37474,-1.024269 0.37474,-0.995943 0.37473,-0.964288 0.37474,-0.929895 0.37474,-0.893307 0.37473,-0.855029 0.37474,-0.815523 0.37474,-0.775216 0.37473,-0.734495 0.37474,-0.693713 0.37473,-0.653185 0.37474,-0.613192 0.37474,-0.57398 0.37473,-0.535759 0.37474,-0.498711 0.37474,-0.462981 0.37473,-0.428691 0.37474,-0.395931 0.37474,-0.364769 0.37473,-0.33525 0.37474,-0.307394 0.37474,-0.281208 0.37473,-0.256678 0.37474,-0.233781 0.37474,-0.212474 0.37473,-0.192714 0.37474,-0.17444 0.37474,-0.15759 0.37473,-0.142098 0.37474,-0.12789 0.37474,-0.114891 0.37473,-0.103029 0.37474,-0.09223 0.37474,-0.08241 0.37473,-0.07351 0.37474,-0.06545 0.37474,-0.05817 0.37473,-0.05159 0.37474,-0.04566 0.37473,-0.04032 0.37474,-0.03551 0.37474,-0.03118 0.37473,-0.02728 0.37474,-0.02378 0.37474,-0.02061 0.37474,-0.01776 0.37473,-0.01518 0.37474,-0.01284 0.37473,-0.01072 0.37474,-0.0088 0.37474,-0.007 0.37473,-0.0053 0.37474,-0.0038 0.37474,-0.0024 0.37473,-0.0011 0.37474,2.23e-4 0.37474,0.0014 0.37473,0.0026 0.37474,0.0038 0.37474,0.0049 0.37473,0.006 0.37474,0.0071 0.37474,0.0083 0.37473,0.0094 0.37474,0.01055 0.37474,0.01173 0.37473,0.01294 0.37474,0.01418 0.37473,0.01546 0.37474,0.01677 0.37474,0.01811 0.37473,0.01948 0.37474,0.02088 0.37474,0.02227 0.37473,0.02366 0.37474,0.02501 0.37474,0.02629 0.37473,0.02746 0.37474,0.02847 0.37474,0.02928 0.37473,0.02985 0.37474,0.03015 0.37474,0.0302 0.37473,0.03006 0.37474,0.02982 0.37474,0.02963 0.37473,0.02962 0.37474,0.02989 0.37474,0.03053 0.37473,0.03157 0.37474,0.03302 0.37474,0.03487 0.37473,0.03712 0.37474,0.03974 0.37474,0.04274 0.37473,0.04608 0.37474,0.04979 0.37474,0.05386 0.37473,0.0583 0.37474,0.06313 0.37473,0.06836 0.37474,0.07401 0.37474,0.0801 v 2.261252 0 l -0.37474,-0.261534 -0.37474,-0.24305 -0.37473,-0.225625 -0.37474,-0.209212 -0.37473,-0.193757 -0.37474,-0.179207 -0.37474,-0.1655 -0.37473,-0.152576 -0.37474,-0.140365 -0.37474,-0.128798 -0.37473,-0.117801 -0.37474,-0.107296 -0.37474,-0.09721 -0.37473,-0.08746 -0.37474,-0.07798 -0.37474,-0.06874 -0.37473,-0.05971 -0.37474,-0.05093 -0.37474,-0.04244 -0.37473,-0.03435 -0.37474,-0.02673 -0.37474,-0.01966 -0.37473,-0.01314 -0.37474,-0.0071 -0.37474,-0.0016 -0.37473,0.0035 -0.37474,0.0083 -0.37474,0.01284 -0.37473,0.01724 -0.37474,0.02153 -0.37474,0.02579 -0.37473,0.03005 -0.37474,0.03435 -0.37474,0.03874 -0.37473,0.04326 -0.37474,0.04792 -0.37473,0.05277 -0.37474,0.05783 -0.37474,0.06313 -0.37473,0.0687 -0.37474,0.07456 -0.37474,0.08075 -0.37473,0.08728 -0.37474,0.09418 -0.37474,0.101489 -0.37473,0.109226 -0.37474,0.117418 -0.37474,0.126096 -0.37473,0.135285 -0.37474,0.14501 -0.37474,0.155301 -0.37473,0.166181 -0.37474,0.177674 -0.37474,0.189803 -0.37473,0.202591 -0.37474,0.216053 -0.37473,0.230206 -0.37474,0.245065 -0.37474,0.260634 -0.37474,0.27692 -0.37473,0.293922 -0.37474,0.311631 -0.37474,0.330036 -0.37473,0.349114 -0.37474,0.368841 -0.37473,0.389176 -0.37474,0.410076 -0.37474,0.431485 -0.37473,0.453337 -0.37474,0.475555 -0.37474,0.498056 -0.37473,0.520736 -0.37474,0.543489 -0.37474,0.566192 -0.37473,0.588714 -0.37474,0.610912 -0.37474,0.632633 -0.37473,0.653713 -0.37474,0.673985 -0.37474,0.693268 -0.37473,0.711381 -0.37474,0.728136 -0.37474,0.743344 -0.37473,0.756817 -0.37474,0.768367 -0.37474,0.777814 -0.37473,0.784981 -0.37474,0.789705 -0.37474,0.791833 -0.37473,0.791226 -0.37474,0.787767 -0.37474,0.781354 -0.37473,0.77191 -0.37474,0.759387 -0.37473,0.743756 -0.37474,0.725025 -0.37474,0.703233 -0.37473,0.678449 -0.37474,0.650785 -0.37474,0.620389 -0.37473,0.587456 -0.37474,0.55223 -0.37474,0.515014 -0.37473,0.476181 -0.37474,0.436194 -0.37474,0.395631 -0.37473,0.355232 -0.37474,0.315959 -0.37474,0.279103 -0.37473,0.246432 -0.37474,0.220408 -0.37474,0.204434 -0.37473,0.203026 -0.37474,0.221426 -0.37474,0.263791 -0.37473,0.329187 -0.37474,0.407467 -0.37474,0.480933 -0.37473,0.533348 -0.37474,0.557324 -0.37474,0.553751 -0.37473,0.527296 -0.37474,0.483089 -0.37473,0.425445 -0.37474,0.357698 -0.37474,0.2824 -0.37473,0.201541 -0.37474,0.116742 -0.37474,0.02936 -0.37473,-0.05941 -0.37474,-0.148523 -0.37474,-0.237011 -0.37473,-0.324005 -0.37474,-0.408705 -0.37474,-0.49039 -0.37473,-0.568403 -0.37474,-0.64217 -0.37474,-0.711187 -0.37473,-0.775028 -0.37474,-0.833341 -0.37474,-0.885858 -0.37473,-0.932383 -0.37474,-0.972794 -0.37474,-1.007047 -0.37473,-1.03516 -0.37474,-1.057219 -0.37474,-1.073369 -0.37473,-1.083808 -0.37474,-1.08878 -0.37474,-1.088572 -0.37473,-1.0835 -0.37474,-1.073916 -0.37473,-1.060182 -0.37474,-1.042684 -0.37474,-1.021809 -0.37473,-0.997951 -0.37474,-0.971496 -0.37474,-0.942829 -0.37473,-0.912319 -0.37474,-0.880321 -0.37474,-0.84717 -0.37473,-0.813187 -0.37474,-0.77866 -0.37474,-0.743865 -0.37473,-0.709043 -0.37474,-0.674421 -0.37474,-0.64019 -0.37473,-0.606527 -0.37474,-0.57358 -0.37474,-0.541473 -0.37473,-0.510316 -0.37474,-0.48019 -0.37474,-0.451162 -0.37473,-0.423285 -0.37474,-0.396589 -0.37474,-0.371095 -0.37473,-0.34681 -0.37474,-0.323729 -0.37473,-0.30184 z" /></g></g><g
             id="g5666"><path
               inkscape:connector-curvature="0"
               id="path5668"
               style="fill:#323034;fill-opacity:1;fill-rule:nonzero;stroke:#323034;stroke-width:0.80000001;stroke-linecap:butt;stroke-linejoin:round;stroke-miterlimit:10;stroke-dasharray:none;stroke-opacity:1"
               d="m 122.20431,28.965625 v -3.5" /><g
               transform="translate(120.20431,18.0125)"
               id="g5670"><text
                 id="text5674"
                 style="font-variant:normal;font-weight:normal;font-size:5px;font-family:'DejaVu Sans';-inkscape-font-specification:DejaVuSans;writing-mode:lr-tb;fill:#323034;fill-opacity:1;fill-rule:nonzero;stroke:none"
                 transform="matrix(1,0,0,-1,0,0.28125)"><tspan
                   id="tspan5672"
                   y="0"
                   x="0">0</tspan></text>
</g><path
               inkscape:connector-curvature="0"
               id="path5676"
               style="fill:#323034;fill-opacity:1;fill-rule:nonzero;stroke:#323034;stroke-width:0.80000001;stroke-linecap:butt;stroke-linejoin:round;stroke-miterlimit:10;stroke-dasharray:none;stroke-opacity:1"
               d="m 139.06745,28.965625 v -3.5" /><g
               transform="translate(135.56745,18.0125)"
               id="g5678"><text
                 id="text5682"
                 style="font-variant:normal;font-weight:normal;font-size:5px;font-family:'DejaVu Sans';-inkscape-font-specification:DejaVuSans;writing-mode:lr-tb;fill:#323034;fill-opacity:1;fill-rule:nonzero;stroke:none"
                 transform="matrix(1,0,0,-1,0,0.28125)"><tspan
                   id="tspan5680"
                   sodipodi:role="line"
                   y="0"
                   x="0 3.1811523">90</tspan></text>
</g><path
               inkscape:connector-curvature="0"
               id="path5684"
               style="fill:#323034;fill-opacity:1;fill-rule:nonzero;stroke:#323034;stroke-width:0.80000001;stroke-linecap:butt;stroke-linejoin:round;stroke-miterlimit:10;stroke-dasharray:none;stroke-opacity:1"
               d="m 155.9306,28.965625 v -3.5" /><g
               transform="translate(150.9306,18.0125)"
               id="g5686"><text
                 id="text5690"
                 style="font-variant:normal;font-weight:normal;font-size:5px;font-family:'DejaVu Sans';-inkscape-font-specification:DejaVuSans;writing-mode:lr-tb;fill:#323034;fill-opacity:1;fill-rule:nonzero;stroke:none"
                 transform="matrix(1,0,0,-1,0,0.28125)"><tspan
                   id="tspan5688"
                   sodipodi:role="line"
                   y="0"
                   x="0 3.1811523 6.3623047">180</tspan></text>
</g><path
               inkscape:connector-curvature="0"
               id="path5692"
               style="fill:#323034;fill-opacity:1;fill-rule:nonzero;stroke:#323034;stroke-width:0.80000001;stroke-linecap:butt;stroke-linejoin:round;stroke-miterlimit:10;stroke-dasharray:none;stroke-opacity:1"
               d="m 172.79374,28.965625 v -3.5" /><g
               transform="translate(167.79374,18.0125)"
               id="g5694"><text
                 id="text5698"
                 style="font-variant:normal;font-weight:normal;font-size:5px;font-family:'DejaVu Sans';-inkscape-font-specification:DejaVuSans;writing-mode:lr-tb;fill:#323034;fill-opacity:1;fill-rule:nonzero;stroke:none"
                 transform="matrix(1,0,0,-1,0,0.28125)"><tspan
                   id="tspan5696"
                   sodipodi:role="line"
                   y="0"
                   x="0 3.1811523 6.3623047">270</tspan></text>
</g><path
               inkscape:connector-curvature="0"
               id="path5700"
               style="fill:#323034;fill-opacity:1;fill-rule:nonzero;stroke:#323034;stroke-width:0.80000001;stroke-linecap:butt;stroke-linejoin:round;stroke-miterlimit:10;stroke-dasharray:none;stroke-opacity:1"
               d="m 189.65689,28.965625 v -3.5" /><g
               transform="translate(184.65689,18.0125)"
               id="g5702"><text
                 id="text5706"
                 style="font-variant:normal;font-weight:normal;font-size:5px;font-family:'DejaVu Sans';-inkscape-font-specification:DejaVuSans;writing-mode:lr-tb;fill:#323034;fill-opacity:1;fill-rule:nonzero;stroke:none"
                 transform="matrix(1,0,0,-1,0,0.28125)"><tspan
                   id="tspan5704"
                   sodipodi:role="line"
                   y="0"
                   x="0 3.1811523 6.3623047">360</tspan></text>
</g><path
               inkscape:connector-curvature="0"
               id="path5708"
               style="fill:#323034;fill-opacity:1;fill-rule:nonzero;stroke:#323034;stroke-width:0.60000002;stroke-linecap:butt;stroke-linejoin:round;stroke-miterlimit:10;stroke-dasharray:none;stroke-opacity:1"
               d="m 130.63588,28.965625 v -2" /><path
               inkscape:connector-curvature="0"
               id="path5710"
               style="fill:#323034;fill-opacity:1;fill-rule:nonzero;stroke:#323034;stroke-width:0.60000002;stroke-linecap:butt;stroke-linejoin:round;stroke-miterlimit:10;stroke-dasharray:none;stroke-opacity:1"
               d="m 147.49902,28.965625 v -2" /><path
               inkscape:connector-curvature="0"
               id="path5712"
               style="fill:#323034;fill-opacity:1;fill-rule:nonzero;stroke:#323034;stroke-width:0.60000002;stroke-linecap:butt;stroke-linejoin:round;stroke-miterlimit:10;stroke-dasharray:none;stroke-opacity:1"
               d="m 164.36217,28.965625 v -2" /><path
               inkscape:connector-curvature="0"
               id="path5714"
               style="fill:#323034;fill-opacity:1;fill-rule:nonzero;stroke:#323034;stroke-width:0.60000002;stroke-linecap:butt;stroke-linejoin:round;stroke-miterlimit:10;stroke-dasharray:none;stroke-opacity:1"
               d="m 181.22531,28.965625 v -2" /><g
               transform="translate(127.40716,8.653125)"
               id="g5716"><text
                 id="text5720"
                 style="font-variant:normal;font-weight:normal;font-size:7px;font-family:'DejaVu Sans';-inkscape-font-specification:DejaVuSans;writing-mode:lr-tb;fill:#000000;fill-opacity:1;fill-rule:nonzero;stroke:none"
                 transform="scale(1,-1)"><tspan
                   id="tspan5718"
                   sodipodi:role="line"
                   y="0"
                   x="0 5.2639999 9.7019997 14.007 16.233 21.021 25.459 29.903999 31.85 36.154999 38.381001 41.111 45.556 49.861 54.306">Hue Angle (deg)</tspan></text>
</g><path
               inkscape:connector-curvature="0"
               id="path5722"
               style="fill:#323034;fill-opacity:1;fill-rule:nonzero;stroke:#323034;stroke-width:0.80000001;stroke-linecap:butt;stroke-linejoin:round;stroke-miterlimit:10;stroke-dasharray:none;stroke-opacity:1"
               d="m 122.20431,28.965625 h -3.5" /><path
               inkscape:connector-curvature="0"
               id="path5724"
               style="fill:#323034;fill-opacity:1;fill-rule:nonzero;stroke:#323034;stroke-width:0.80000001;stroke-linecap:butt;stroke-linejoin:round;stroke-miterlimit:10;stroke-dasharray:none;stroke-opacity:1"
               d="m 122.20431,50.898958 h -3.5" /><path
               inkscape:connector-curvature="0"
               id="path5726"
               style="fill:#323034;fill-opacity:1;fill-rule:nonzero;stroke:#323034;stroke-width:0.80000001;stroke-linecap:butt;stroke-linejoin:round;stroke-miterlimit:10;stroke-dasharray:none;stroke-opacity:1"
               d="m 122.20431,72.832292 h -3.5" /></g><g
             id="g5728"><g
               clip-path="url(#clipPath5734)"
               id="g5730"><path
                 inkscape:connector-curvature="0"
                 id="path5736"
                 style="fill:none;stroke:#808080;stroke-width:1;stroke-linecap:square;stroke-linejoin:round;stroke-miterlimit:10;stroke-dasharray:none;stroke-opacity:1"
                 d="m 122.20433,32.187477 1.49894,0.883114 1.49895,1.16223 1.49894,1.500185 1.49895,1.891209 1.49895,2.316989 1.49894,2.743364 1.87368,3.946752 5.24632,11.581269 1.12421,1.900002 1.12421,1.469587 0.74947,0.704441 0.74947,0.467077 0.74948,0.222113 0.74947,-0.02396 0.74947,-0.264812 0.74947,-0.494632 0.74948,-0.708338 1.12421,-1.417978 1.12421,-1.771987 1.49894,-2.760282 3.37263,-6.887203 2.62316,-5.065867 1.87368,-3.128816 1.49895,-2.142643 1.49894,-1.813997 1.49895,-1.500234 1.49895,-1.215199 1.49894,-0.966393 1.87368,-0.916744 1.87369,-0.659528 2.24842,-0.537301 2.62315,-0.376519 2.99789,-0.199634 3.37263,0.0038 2.9979,0.216742 2.62315,0.421411 1.87369,0.499332 1.87368,0.738537 v 0" /></g></g><g
             id="g5738"><path
               inkscape:connector-curvature="0"
               id="path5740"
               style="fill:none;stroke:#000000;stroke-width:0.60000002;stroke-linecap:square;stroke-linejoin:miter;stroke-miterlimit:10;stroke-dasharray:none;stroke-opacity:1"
               d="m 122.20431,28.965625 v 52.64" /><path
               inkscape:connector-curvature="0"
               id="path5742"
               style="fill:none;stroke:#000000;stroke-width:0.60000002;stroke-linecap:square;stroke-linejoin:miter;stroke-miterlimit:10;stroke-dasharray:none;stroke-opacity:1"
               d="m 122.20431,28.965625 h 67.45258" /></g></g></g></g></g></svg>