<?xml version="1.0" encoding="UTF-8" standalone="no"?>
<!-- Created with Inkscape (http://www.inkscape.org/) -->

<svg
   xmlns:dc="http://purl.org/dc/elements/1.1/"
   xmlns:cc="http://creativecommons.org/ns#"
   xmlns:rdf="http://www.w3.org/1999/02/22-rdf-syntax-ns#"
   xmlns:svg="http://www.w3.org/2000/svg"
   xmlns="http://www.w3.org/2000/svg"
   xmlns:sodipodi="http://sodipodi.sourceforge.net/DTD/sodipodi-0.dtd"
   xmlns:inkscape="http://www.inkscape.org/namespaces/inkscape"
   version="1.1"
   id="svg2"
   xml:space="preserve"
   width="268.15103"
   height="133.49083"
   viewBox="0 0 268.15103 133.49083"
   sodipodi:docname="Fig_3_v3.svg"
   inkscape:version="0.92.5 (2060ec1f9f, 2020-04-08)"><metadata
     id="metadata8"><rdf:RDF><cc:Work
         rdf:about=""><dc:format>image/svg+xml</dc:format><dc:type
           rdf:resource="http://purl.org/dc/dcmitype/StillImage" /><dc:title></dc:title></cc:Work></rdf:RDF></metadata><defs
     id="defs6"><clipPath
       clipPathUnits="userSpaceOnUse"
       id="clipPath20"><path
         d="m 38.309375,28.965625 h 67.408895 v 52.64 H 38.309375 Z"
         id="path18"
         inkscape:connector-curvature="0" /></clipPath><clipPath
       clipPathUnits="userSpaceOnUse"
       id="clipPath30"><path
         d="m 38.309375,28.965625 h 67.408895 v 52.64 H 38.309375 Z"
         id="path28"
         inkscape:connector-curvature="0" /></clipPath><clipPath
       clipPathUnits="userSpaceOnUse"
       id="clipPath126"><path
         d="m 38.309375,28.965625 h 67.408895 v 52.64 H 38.309375 Z"
         id="path124"
         inkscape:connector-curvature="0" /></clipPath><clipPath
       clipPathUnits="userSpaceOnUse"
       id="clipPath136"><path
         d="m 38.309375,28.965625 h 67.408895 v 52.64 H 38.309375 Z"
         id="path134"
         inkscape:connector-curvature="0" /></clipPath><clipPath
       clipPathUnits="userSpaceOnUse"
       id="clipPath146"><path
         d="m 38.309375,28.965625 h 67.408895 v 52.64 H 38.309375 Z"
         id="path144"
         inkscape:connector-curvature="0" /></clipPath><clipPath
       clipPathUnits="userSpaceOnUse"
       id="clipPath156"><path
         d="m 38.309375,28.965625 h 67.408895 v 52.64 H 38.309375 Z"
         id="path154"
         inkscape:connector-curvature="0" /></clipPath><clipPath
       clipPathUnits="userSpaceOnUse"
       id="clipPath166"><path
         d="m 38.309375,28.965625 h 67.408895 v 52.64 H 38.309375 Z"
         id="path164"
         inkscape:connector-curvature="0" /></clipPath><clipPath
       clipPathUnits="userSpaceOnUse"
       id="clipPath176"><path
         d="m 38.309375,28.965625 h 67.408895 v 52.64 H 38.309375 Z"
         id="path174"
         inkscape:connector-curvature="0" /></clipPath><clipPath
       clipPathUnits="userSpaceOnUse"
       id="clipPath186"><path
         d="m 38.309375,28.965625 h 67.408895 v 52.64 H 38.309375 Z"
         id="path184"
         inkscape:connector-curvature="0" /></clipPath><clipPath
       clipPathUnits="userSpaceOnUse"
       id="clipPath196"><path
         d="m -2.75,-2.75 h 5.5 v 5.5 h -5.5 z"
         id="path194"
         inkscape:connector-curvature="0" /></clipPath><clipPath
       clipPathUnits="userSpaceOnUse"
       id="clipPath208"><path
         d="m -2.75,-2.75 h 5.5 v 5.5 h -5.5 z"
         id="path206"
         inkscape:connector-curvature="0" /></clipPath><clipPath
       clipPathUnits="userSpaceOnUse"
       id="clipPath220"><path
         d="m -2.75,-2.75 h 5.5 v 5.5 h -5.5 z"
         id="path218"
         inkscape:connector-curvature="0" /></clipPath><clipPath
       clipPathUnits="userSpaceOnUse"
       id="clipPath232"><path
         d="m -2.75,-2.75 h 5.5 v 5.5 h -5.5 z"
         id="path230"
         inkscape:connector-curvature="0" /></clipPath><clipPath
       clipPathUnits="userSpaceOnUse"
       id="clipPath244"><path
         d="m -2.75,-2.75 h 5.5 v 5.5 h -5.5 z"
         id="path242"
         inkscape:connector-curvature="0" /></clipPath><clipPath
       clipPathUnits="userSpaceOnUse"
       id="clipPath256"><path
         d="m -2.75,-2.75 h 5.5 v 5.5 h -5.5 z"
         id="path254"
         inkscape:connector-curvature="0" /></clipPath><clipPath
       clipPathUnits="userSpaceOnUse"
       id="clipPath268"><path
         d="m -2.75,-2.75 h 5.5 v 5.5 h -5.5 z"
         id="path266"
         inkscape:connector-curvature="0" /></clipPath><clipPath
       clipPathUnits="userSpaceOnUse"
       id="clipPath280"><path
         d="m -2.75,-2.75 h 5.5 v 5.5 h -5.5 z"
         id="path278"
         inkscape:connector-curvature="0" /></clipPath><clipPath
       clipPathUnits="userSpaceOnUse"
       id="clipPath292"><path
         d="m -2.75,-2.75 h 5.5 v 5.5 h -5.5 z"
         id="path290"
         inkscape:connector-curvature="0" /></clipPath><clipPath
       clipPathUnits="userSpaceOnUse"
       id="clipPath304"><path
         d="m -2.75,-2.75 h 5.5 v 5.5 h -5.5 z"
         id="path302"
         inkscape:connector-curvature="0" /></clipPath><clipPath
       clipPathUnits="userSpaceOnUse"
       id="clipPath314"><path
         d="m 38.309375,28.965625 h 67.408895 v 52.64 H 38.309375 Z"
         id="path312"
         inkscape:connector-curvature="0" /></clipPath><clipPath
       clipPathUnits="userSpaceOnUse"
       id="clipPath338"><path
         d="m 121.50437,28.965625 h 67.4089 v 52.64 h -67.4089 z"
         id="path336"
         inkscape:connector-curvature="0" /></clipPath><clipPath
       clipPathUnits="userSpaceOnUse"
       id="clipPath348"><path
         d="m 121.50437,28.965625 h 67.4089 v 52.64 h -67.4089 z"
         id="path346"
         inkscape:connector-curvature="0" /></clipPath><clipPath
       clipPathUnits="userSpaceOnUse"
       id="clipPath420"><path
         d="m 121.50437,28.965625 h 67.4089 v 52.64 h -67.4089 z"
         id="path418"
         inkscape:connector-curvature="0" /></clipPath><clipPath
       clipPathUnits="userSpaceOnUse"
       id="clipPath430"><path
         d="m 121.50437,28.965625 h 67.4089 v 52.64 h -67.4089 z"
         id="path428"
         inkscape:connector-curvature="0" /></clipPath><clipPath
       clipPathUnits="userSpaceOnUse"
       id="clipPath440"><path
         d="m 121.50437,28.965625 h 67.4089 v 52.64 h -67.4089 z"
         id="path438"
         inkscape:connector-curvature="0" /></clipPath><clipPath
       clipPathUnits="userSpaceOnUse"
       id="clipPath450"><path
         d="m 121.50437,28.965625 h 67.4089 v 52.64 h -67.4089 z"
         id="path448"
         inkscape:connector-curvature="0" /></clipPath><clipPath
       clipPathUnits="userSpaceOnUse"
       id="clipPath460"><path
         d="m 121.50437,28.965625 h 67.4089 v 52.64 h -67.4089 z"
         id="path458"
         inkscape:connector-curvature="0" /></clipPath><clipPath
       clipPathUnits="userSpaceOnUse"
       id="clipPath470"><path
         d="m 121.50437,28.965625 h 67.4089 v 52.64 h -67.4089 z"
         id="path468"
         inkscape:connector-curvature="0" /></clipPath><clipPath
       clipPathUnits="userSpaceOnUse"
       id="clipPath480"><path
         d="m 121.50437,28.965625 h 67.4089 v 52.64 h -67.4089 z"
         id="path478"
         inkscape:connector-curvature="0" /></clipPath></defs><sodipodi:namedview
     pagecolor="#ffffff"
     bordercolor="#000000"
     borderopacity="0.25"
     objecttolerance="10"
     gridtolerance="10"
     guidetolerance="10"
     inkscape:pageopacity="0"
     inkscape:pageshadow="2"
     inkscape:window-width="1905"
     inkscape:window-height="993"
     id="namedview4"
     showgrid="false"
     inkscape:zoom="1.9460854"
     inkscape:cx="262.81874"
     inkscape:cy="91.879428"
     inkscape:window-x="3213"
     inkscape:window-y="281"
     inkscape:window-maximized="0"
     inkscape:current-layer="g318" /><g
     id="g10"
     inkscape:groupmode="layer"
     inkscape:label="Fig_3_v3"
     transform="matrix(1.3333333,0,0,-1.3333333,0,133.49083)"><path
       d="m 38.309375,28.965625 h 67.408895 v 52.64 H 38.309375 Z"
       style="fill:#ffffff;fill-opacity:1;fill-rule:nonzero;stroke:none"
       id="path12"
       inkscape:connector-curvature="0" /><g
       id="g14"><g
         id="g16"
         clip-path="url(#clipPath20)"><path
           d="m 38.309375,40.213488 h 67.221655 v 0"
           style="fill:none;stroke:#cccccc;stroke-width:1;stroke-linecap:square;stroke-linejoin:round;stroke-miterlimit:10;stroke-dasharray:none;stroke-opacity:1"
           id="path22"
           inkscape:connector-curvature="0" /></g></g><g
       id="g24"><g
         id="g26"
         clip-path="url(#clipPath30)"><path
           d="m 38.309394,30.476315 v -0.7081 l 0.374494,0.04262 0.374493,0.04625 0.374494,0.05017 0.374494,0.0544 0.374494,0.05897 0.374494,0.06389 0.374494,0.0692 0.374494,0.07493 0.374494,0.08111 0.374493,0.08777 0.374494,0.09493 0.374494,0.102655 0.374494,0.110962 0.374494,0.119894 0.374494,0.12949 0.374494,0.139794 0.374494,0.150847 0.374493,0.162693 0.374494,0.175377 0.374494,0.188946 0.374494,0.203445 0.374494,0.218921 0.374494,0.23542 0.374494,0.252989 0.374494,0.271674 0.374494,0.291516 0.374493,0.31256 0.374494,0.334843 0.374494,0.358401 0.374494,0.383263 0.374494,0.409457 0.374494,0.436995 0.374494,0.46589 0.374494,0.496136 0.374493,0.527721 0.374494,0.560613 0.374494,0.594763 0.374494,0.630106 0.374494,0.666548 0.374494,0.70397 0.374494,0.742221 0.374494,0.781117 0.374493,0.820432 0.374494,0.859898 0.374494,0.899196 0.374494,0.937953 0.374494,0.97574 0.374494,1.012055 0.374494,1.046334 0.374494,1.077926 0.374493,1.106091 0.374494,1.129986 0.374494,1.14864 0.374494,1.160912 0.374494,1.165428 0.374494,1.160469 0.374494,1.143771 0.374494,1.112194 0.374493,1.061213 0.374494,0.984343 0.374494,0.873265 0.374494,0.721029 0.374494,0.530752 0.374494,0.323068 0.374494,0.126246 0.374494,-0.04308 0.374493,-0.18354 0.374494,-0.300357 0.374494,-0.399015 0.374494,-0.483453 0.374494,-0.556199 0.374494,-0.618863 0.374494,-0.672516 0.374494,-0.717948 0.374493,-0.755812 0.374494,-0.786702 0.374494,-0.811207 0.374494,-0.829911 0.374494,-0.843411 0.374494,-0.85231 0.374494,-0.857197 0.374494,-0.858654 0.374493,-0.857225 0.374494,-0.853421 0.374494,-0.847703 0.374494,-0.840479 0.374494,-0.832097 0.374494,-0.822842 0.374494,-0.81294 0.374494,-0.802552 0.374493,-0.791773 0.374494,-0.780635 0.374494,-0.769102 0.374494,-0.757069 0.374494,-0.744361 0.374494,-0.730737 0.374494,-0.715903 0.374494,-0.699541 0.374493,-0.681343 0.374494,-0.661062 0.374494,-0.638566 0.374494,-0.613863 0.374494,-0.587119 0.374494,-0.558641 0.374494,-0.528845 0.374494,-0.498198 0.374493,-0.467187 0.374494,-0.436265 0.374494,-0.405843 0.374494,-0.376254 0.374494,-0.347773 0.374494,-0.320596 0.374494,-0.294863 0.374494,-0.270658 0.374493,-0.248018 0.374494,-0.22695 0.374494,-0.207422 0.374494,-0.189392 0.374494,-0.172794 0.374494,-0.157554 0.374494,-0.143593 0.374494,-0.130828 0.374493,-0.119172 0.374494,-0.108543 0.374494,-0.09886 0.374494,-0.09004 0.374494,-0.08202 0.374494,-0.07472 0.374494,-0.06808 0.374494,-0.06204 0.374493,-0.05653 0.374494,-0.05153 0.374494,-0.04696 0.374494,-0.0428 0.374494,-0.03899 0.374494,-0.03552 0.374494,-0.03234 0.374494,-0.02943 0.374494,-0.02675 0.374493,-0.02429 0.374494,-0.02202 0.374494,-0.01992 0.374494,-0.01797 0.374494,-0.01617 0.374494,-0.01448 0.374494,-0.01291 0.374494,-0.01143 0.374493,-0.01003 0.374494,-0.0087 0.374494,-0.0075 0.374494,-0.0063 0.374494,-0.0051 0.374494,-0.004 0.374494,-0.0029 0.374494,-0.0018 0.374493,-7.68e-4 0.374494,2.75e-4 0.374494,0.0013 0.374494,0.0024 0.374494,0.0034 0.374494,0.0045 0.374494,0.0056 0.374494,0.0067 0.374493,0.0079 0.374491,0.0091 0.3745,0.01037 0.37449,0.0117 0.3745,0.0131 0.37449,0.01458 0.37449,0.01615 0.3745,0.01781 0.37449,0.01959 0.37449,0.02148 0.3745,0.02351 0.37449,0.02568 0.3745,0.02802 0.37449,0.03052 0.37449,0.03322 0.3745,0.03612 v 0.676888 0 l -0.3745,-0.06462 -0.37449,-0.05921 -0.37449,-0.05419 -0.3745,-0.04952 -0.37449,-0.04517 -0.3745,-0.04112 -0.37449,-0.03733 -0.37449,-0.03379 -0.3745,-0.03047 -0.37449,-0.02734 -0.37449,-0.02439 -0.3745,-0.0216 -0.37449,-0.01894 -0.3745,-0.01641 -0.374491,-0.01398 -0.374493,-0.01164 -0.374494,-0.0094 -0.374494,-0.0072 -0.374494,-0.005 -0.374494,-0.0029 -0.374494,-8.1e-4 -0.374494,0.0013 -0.374494,0.0034 -0.374493,0.0055 -0.374494,0.0076 -0.374494,0.0098 -0.374494,0.01201 -0.374494,0.01431 -0.374494,0.01668 -0.374494,0.01915 -0.374494,0.02173 -0.374493,0.02443 -0.374494,0.02727 -0.374494,0.03026 -0.374494,0.03344 -0.374494,0.0368 -0.374494,0.04037 -0.374494,0.04418 -0.374494,0.04824 -0.374493,0.05258 -0.374494,0.05722 -0.374494,0.06219 -0.374494,0.06751 -0.374494,0.07321 -0.374494,0.07933 -0.374494,0.08589 -0.374494,0.09292 -0.374494,0.100463 -0.374493,0.108548 -0.374494,0.117212 -0.374494,0.126489 -0.374494,0.13642 -0.374494,0.14704 -0.374494,0.158388 -0.374494,0.170502 -0.374494,0.183421 -0.374493,0.197183 -0.374494,0.211828 -0.374494,0.227394 -0.374494,0.243919 -0.374494,0.261447 -0.374494,0.280015 -0.374494,0.299673 -0.374494,0.320467 -0.374493,0.342455 -0.374494,0.365701 -0.374494,0.390285 -0.374494,0.416299 -0.374494,0.44386 -0.374494,0.473107 -0.374494,0.504206 -0.374494,0.537349 -0.374493,0.572758 -0.374494,0.610662 -0.374494,0.651283 -0.374494,0.694808 -0.374494,0.741341 -0.374494,0.79085 -0.374494,0.843125 -0.374494,0.897728 -0.374493,0.95399 -0.374494,1.011014 -0.374494,1.067715 -0.374494,1.12288 -0.374494,1.17522 -0.374494,1.22342 -0.374494,1.26618 -0.374494,1.302251 -0.374493,1.330443 -0.374494,1.349662 -0.374494,1.358919 -0.374494,1.357355 -0.374494,1.344268 -0.374494,1.319127 -0.374494,1.281603 -0.374494,1.231581 -0.374493,1.16918 -0.374494,1.094762 -0.374494,1.008931 -0.374494,0.912537 -0.374494,0.80666 -0.374494,0.692601 -0.374494,0.571853 -0.374494,0.446089 -0.374493,0.317126 -0.374494,0.186919 -0.374494,0.05754 -0.374494,-0.06878 -0.374494,-0.18964 L 64.149471,69.763372 63.774977,69.359827 63.400483,68.870646 63.02599,68.316928 62.651496,67.726745 62.277002,67.1348 61.902508,66.575691 61.528014,66.068538 61.15352,65.605207 60.779026,65.157798 60.404532,64.696009 60.030039,64.197058 59.655545,63.646896 59.281051,63.038231 58.906557,62.368425 58.532063,61.637977 58.157569,60.849522 57.783075,60.007174 57.408581,59.116073 57.034088,58.182064 56.659594,57.211441 56.2851,56.210759 55.910606,55.186664 55.536112,54.145764 55.161618,53.094513 54.787124,52.039115 54.41263,50.985451 54.038137,49.939013 53.663643,48.904861 53.289149,47.887584 52.914655,46.891284 52.540161,45.919561 52.165667,44.975517 51.791173,44.061757 51.416679,43.180412 51.042186,42.333156 50.667692,41.521233 50.293198,40.745489 49.918704,40.006402 49.54421,39.304117 49.169716,38.638484 48.795222,38.009092 48.420728,37.415301 48.046235,36.856281 47.671741,36.331038 47.297247,35.838449 46.922753,35.377288 46.548259,34.946251 46.173765,34.54398 45.799271,34.169082 45.424777,33.820151 45.050283,33.495778 44.67579,33.194569 44.301296,32.915157 43.926802,32.656204 43.552308,32.41642 43.177814,32.194559 42.80332,31.989427 42.428826,31.799887 42.054332,31.62486 41.679839,31.463324 41.305345,31.314315 40.930851,31.17693 40.556357,31.050321 40.181863,30.933697 39.807369,30.82632 39.432875,30.72751 39.058381,30.63662 38.683888,30.55307 38.309394,30.47632 Z"
           style="fill:#808080;fill-opacity:0.2;fill-rule:nonzero;stroke:#808080;stroke-width:0.80000001;stroke-linecap:butt;stroke-linejoin:round;stroke-miterlimit:10;stroke-dasharray:none;stroke-opacity:0.2"
           id="path32"
           inkscape:connector-curvature="0" /></g></g><g
       id="g34"><path
         d="m 38.309375,28.965625 v -3.5"
         style="fill:#323034;fill-opacity:1;fill-rule:nonzero;stroke:#323034;stroke-width:0.80000001;stroke-linecap:butt;stroke-linejoin:round;stroke-miterlimit:10;stroke-dasharray:none;stroke-opacity:1"
         id="path36"
         inkscape:connector-curvature="0" /><g
         id="g38"
         transform="translate(36.309375,18.0125)"><text
           transform="matrix(1,0,0,-1,0,0.28125)"
           style="font-variant:normal;font-weight:normal;font-size:5px;font-family:'DejaVu Sans';-inkscape-font-specification:DejaVuSans;writing-mode:lr-tb;fill:#323034;fill-opacity:1;fill-rule:nonzero;stroke:none"
           id="text42"><tspan
             x="0"
             y="0"
             id="tspan40">0</tspan></text>
</g><path
         d="m 55.161599,28.965625 v -3.5"
         style="fill:#323034;fill-opacity:1;fill-rule:nonzero;stroke:#323034;stroke-width:0.80000001;stroke-linecap:butt;stroke-linejoin:round;stroke-miterlimit:10;stroke-dasharray:none;stroke-opacity:1"
         id="path44"
         inkscape:connector-curvature="0" /><g
         id="g46"
         transform="translate(51.661599,18.0125)"><text
           transform="matrix(1,0,0,-1,0,0.28125)"
           style="font-variant:normal;font-weight:normal;font-size:5px;font-family:'DejaVu Sans';-inkscape-font-specification:DejaVuSans;writing-mode:lr-tb;fill:#323034;fill-opacity:1;fill-rule:nonzero;stroke:none"
           id="text50"><tspan
             x="0 3.1811523"
             y="0"
             sodipodi:role="line"
             id="tspan48">90</tspan></text>
</g><path
         d="m 72.013824,28.965625 v -3.5"
         style="fill:#323034;fill-opacity:1;fill-rule:nonzero;stroke:#323034;stroke-width:0.80000001;stroke-linecap:butt;stroke-linejoin:round;stroke-miterlimit:10;stroke-dasharray:none;stroke-opacity:1"
         id="path52"
         inkscape:connector-curvature="0" /><g
         id="g54"
         transform="translate(67.013824,18.0125)"><text
           transform="matrix(1,0,0,-1,0,0.28125)"
           style="font-variant:normal;font-weight:normal;font-size:5px;font-family:'DejaVu Sans';-inkscape-font-specification:DejaVuSans;writing-mode:lr-tb;fill:#323034;fill-opacity:1;fill-rule:nonzero;stroke:none"
           id="text58"><tspan
             x="0 3.1811523 6.3623047"
             y="0"
             sodipodi:role="line"
             id="tspan56">180</tspan></text>
</g><path
         d="m 88.866048,28.965625 v -3.5"
         style="fill:#323034;fill-opacity:1;fill-rule:nonzero;stroke:#323034;stroke-width:0.80000001;stroke-linecap:butt;stroke-linejoin:round;stroke-miterlimit:10;stroke-dasharray:none;stroke-opacity:1"
         id="path60"
         inkscape:connector-curvature="0" /><g
         id="g62"
         transform="translate(83.866048,18.0125)"><text
           transform="matrix(1,0,0,-1,0,0.28125)"
           style="font-variant:normal;font-weight:normal;font-size:5px;font-family:'DejaVu Sans';-inkscape-font-specification:DejaVuSans;writing-mode:lr-tb;fill:#323034;fill-opacity:1;fill-rule:nonzero;stroke:none"
           id="text66"><tspan
             x="0 3.1811523 6.3623047"
             y="0"
             sodipodi:role="line"
             id="tspan64">270</tspan></text>
</g><path
         d="m 105.71827,28.965625 v -3.5"
         style="fill:#323034;fill-opacity:1;fill-rule:nonzero;stroke:#323034;stroke-width:0.80000001;stroke-linecap:butt;stroke-linejoin:round;stroke-miterlimit:10;stroke-dasharray:none;stroke-opacity:1"
         id="path68"
         inkscape:connector-curvature="0" /><g
         id="g70"
         transform="translate(100.71827,18.0125)"><text
           transform="matrix(1,0,0,-1,0,0.28125)"
           style="font-variant:normal;font-weight:normal;font-size:5px;font-family:'DejaVu Sans';-inkscape-font-specification:DejaVuSans;writing-mode:lr-tb;fill:#323034;fill-opacity:1;fill-rule:nonzero;stroke:none"
           id="text74"><tspan
             x="0 3.1811523 6.3623047"
             y="0"
             sodipodi:role="line"
             id="tspan72">360</tspan></text>
</g><path
         d="m 46.735487,28.965625 v -2"
         style="fill:#323034;fill-opacity:1;fill-rule:nonzero;stroke:#323034;stroke-width:0.60000002;stroke-linecap:butt;stroke-linejoin:round;stroke-miterlimit:10;stroke-dasharray:none;stroke-opacity:1"
         id="path76"
         inkscape:connector-curvature="0" /><path
         d="m 63.587712,28.965625 v -2"
         style="fill:#323034;fill-opacity:1;fill-rule:nonzero;stroke:#323034;stroke-width:0.60000002;stroke-linecap:butt;stroke-linejoin:round;stroke-miterlimit:10;stroke-dasharray:none;stroke-opacity:1"
         id="path78"
         inkscape:connector-curvature="0" /><path
         d="m 80.439936,28.965625 v -2"
         style="fill:#323034;fill-opacity:1;fill-rule:nonzero;stroke:#323034;stroke-width:0.60000002;stroke-linecap:butt;stroke-linejoin:round;stroke-miterlimit:10;stroke-dasharray:none;stroke-opacity:1"
         id="path80"
         inkscape:connector-curvature="0" /><path
         d="m 97.29216,28.965625 v -2"
         style="fill:#323034;fill-opacity:1;fill-rule:nonzero;stroke:#323034;stroke-width:0.60000002;stroke-linecap:butt;stroke-linejoin:round;stroke-miterlimit:10;stroke-dasharray:none;stroke-opacity:1"
         id="path82"
         inkscape:connector-curvature="0" /><g
         id="g84"
         transform="translate(43.490386,8.653125)"><text
           transform="scale(1,-1)"
           style="font-variant:normal;font-weight:normal;font-size:7px;font-family:'DejaVu Sans';-inkscape-font-specification:DejaVuSans;writing-mode:lr-tb;fill:#000000;fill-opacity:1;fill-rule:nonzero;stroke:none"
           id="text88"><tspan
             x="0 5.2639999 9.7019997 14.007 16.233 21.021 25.459 29.903999 31.85 36.154999 38.381001 41.111 45.556 49.861 54.306"
             y="0"
             sodipodi:role="line"
             id="tspan86">Hue Angle (deg)</tspan></text>
</g><path
         d="m 38.309375,28.965625 h -3.5"
         style="fill:#323034;fill-opacity:1;fill-rule:nonzero;stroke:#323034;stroke-width:0.80000001;stroke-linecap:butt;stroke-linejoin:round;stroke-miterlimit:10;stroke-dasharray:none;stroke-opacity:1"
         id="path90"
         inkscape:connector-curvature="0" /><g
         id="g92"
         transform="translate(16.965625,27.067187)"><text
           transform="scale(1,-1)"
           style="font-variant:normal;font-weight:normal;font-size:5px;font-family:'DejaVu Sans';-inkscape-font-specification:DejaVuSans;writing-mode:lr-tb;fill:#323034;fill-opacity:1;fill-rule:nonzero;stroke:none"
           id="text96"><tspan
             x="0 3.1800001 4.77 7.9499998 11.13"
             y="0"
             sodipodi:role="line"
             id="tspan94">0.000</tspan></text>
</g><path
         d="m 38.309375,49.211779 h -3.5"
         style="fill:#323034;fill-opacity:1;fill-rule:nonzero;stroke:#323034;stroke-width:0.80000001;stroke-linecap:butt;stroke-linejoin:round;stroke-miterlimit:10;stroke-dasharray:none;stroke-opacity:1"
         id="path98"
         inkscape:connector-curvature="0" /><g
         id="g100"
         transform="translate(16.965625,47.313341)"><text
           transform="scale(1,-1)"
           style="font-variant:normal;font-weight:normal;font-size:5px;font-family:'DejaVu Sans';-inkscape-font-specification:DejaVuSans;writing-mode:lr-tb;fill:#323034;fill-opacity:1;fill-rule:nonzero;stroke:none"
           id="text104"><tspan
             x="0 3.1800001 4.77 7.9499998 11.13"
             y="0"
             sodipodi:role="line"
             id="tspan102">0.005</tspan></text>
</g><path
         d="m 38.309375,69.457933 h -3.5"
         style="fill:#323034;fill-opacity:1;fill-rule:nonzero;stroke:#323034;stroke-width:0.80000001;stroke-linecap:butt;stroke-linejoin:round;stroke-miterlimit:10;stroke-dasharray:none;stroke-opacity:1"
         id="path106"
         inkscape:connector-curvature="0" /><g
         id="g108"
         transform="translate(16.965625,67.559495)"><text
           transform="scale(1,-1)"
           style="font-variant:normal;font-weight:normal;font-size:5px;font-family:'DejaVu Sans';-inkscape-font-specification:DejaVuSans;writing-mode:lr-tb;fill:#323034;fill-opacity:1;fill-rule:nonzero;stroke:none"
           id="text112"><tspan
             x="0 3.1800001 4.77 7.9499998 11.13"
             y="0"
             sodipodi:role="line"
             id="tspan110">0.010</tspan></text>
</g><g
         id="g114"
         transform="rotate(90,-17.367031,29.879531)"><text
           transform="scale(1,-1)"
           style="font-variant:normal;font-weight:normal;font-size:7px;font-family:'DejaVu Sans';-inkscape-font-specification:DejaVuSans;writing-mode:lr-tb;fill:#000000;fill-opacity:1;fill-rule:nonzero;stroke:none"
           id="text118"><tspan
             x="0 4.1116252 6.988625 8.9346247 13.218625"
             y="0"
             sodipodi:role="line"
             id="tspan116">Prior</tspan></text>
</g></g><g
       id="g120"><g
         id="g122"
         clip-path="url(#clipPath126)"><path
           d="m 38.309394,30.122265 2.246963,0.445152 1.872469,0.578755 1.497976,0.659659 1.497975,0.896328 1.497976,1.201935 1.123482,1.147586 1.123481,1.394003 1.123482,1.668361 1.497975,2.683313 1.497976,3.210607 1.872469,4.654897 4.868421,12.640022 1.123481,2.163485 0.748988,1.111132 0.748988,0.800185 0.748987,0.458637 0.748988,0.09668 0.748988,-0.273849 0.748988,-0.640072 0.748987,-0.988902 0.748988,-1.307926 1.123482,-2.468715 1.497975,-3.965476 4.493927,-12.481809 1.497975,-3.344148 1.497976,-2.734156 1.123481,-1.664466 1.123482,-1.366512 1.497976,-1.425018 1.497975,-1.057196 1.497976,-0.774678 1.872469,-0.677585 2.246963,-0.520952 2.621457,-0.35402 3.370445,-0.220172 4.493927,-0.04865 4.119432,0.17386 2.62146,0.274858 v 0"
           style="fill:none;stroke:#808080;stroke-width:1;stroke-linecap:square;stroke-linejoin:round;stroke-miterlimit:10;stroke-dasharray:none;stroke-opacity:1"
           id="path128"
           inkscape:connector-curvature="0" /></g></g><g
       id="g130"><g
         id="g132"
         clip-path="url(#clipPath136)"><path
           d="m 63.02599,71.604025 v 4.2112 h 1.123481 v -4.2112 H 63.02599"
           style="fill:none;stroke:#808080;stroke-width:0.80000001;stroke-linecap:square;stroke-linejoin:round;stroke-miterlimit:10;stroke-dasharray:none;stroke-opacity:1"
           id="path138"
           inkscape:connector-curvature="0" /></g></g><g
       id="g140"><g
         id="g142"
         clip-path="url(#clipPath146)"><path
           d="M 63.02599,73.709625 H 61.902508"
           style="fill:none;stroke:#808080;stroke-width:0.80000001;stroke-linecap:square;stroke-linejoin:round;stroke-miterlimit:10;stroke-dasharray:none;stroke-opacity:1"
           id="path148"
           inkscape:connector-curvature="0" /></g></g><g
       id="g150"><g
         id="g152"
         clip-path="url(#clipPath156)"><path
           d="m 64.149471,73.709625 h 1.123482"
           style="fill:none;stroke:#808080;stroke-width:0.80000001;stroke-linecap:square;stroke-linejoin:round;stroke-miterlimit:10;stroke-dasharray:none;stroke-opacity:1"
           id="path158"
           inkscape:connector-curvature="0" /></g></g><g
       id="g160"><g
         id="g162"
         clip-path="url(#clipPath166)"><path
           d="m 61.902508,72.656825 v 2.1056"
           style="fill:none;stroke:#808080;stroke-width:0.80000001;stroke-linecap:square;stroke-linejoin:round;stroke-miterlimit:10;stroke-dasharray:none;stroke-opacity:1"
           id="path168"
           inkscape:connector-curvature="0" /></g></g><g
       id="g170"><g
         id="g172"
         clip-path="url(#clipPath176)"><path
           d="m 65.272953,72.656825 v 2.1056"
           style="fill:none;stroke:#808080;stroke-width:0.80000001;stroke-linecap:square;stroke-linejoin:round;stroke-miterlimit:10;stroke-dasharray:none;stroke-opacity:1"
           id="path178"
           inkscape:connector-curvature="0" /></g></g><g
       id="g180"><g
         id="g182"
         clip-path="url(#clipPath186)"><g
           id="g188"
           transform="translate(59.655545,73.709625)"><g
             id="g190"><g
               id="g192"
               clip-path="url(#clipPath196)"><path
                 d="m 0,-0.25 c 0.066301,0 0.129895,0.026342 0.176777,0.073223 C 0.223658,-0.129895 0.25,-0.066301 0.25,0 0.25,0.066301 0.223658,0.129895 0.176777,0.176777 0.129895,0.223658 0.066301,0.25 0,0.25 -0.066301,0.25 -0.129895,0.223658 -0.176777,0.176777 -0.223658,0.129895 -0.25,0.066301 -0.25,0 c 0,-0.066301 0.026342,-0.129895 0.073223,-0.176777 C -0.129895,-0.223658 -0.066301,-0.25 0,-0.25 Z"
                 style="fill:none;stroke:#808080;stroke-width:0.5;stroke-linecap:butt;stroke-linejoin:round;stroke-miterlimit:10;stroke-dasharray:none;stroke-opacity:1"
                 id="path198"
                 inkscape:connector-curvature="0" /></g></g><g
             id="g200"
             transform="translate(1.4979755)"><g
               id="g202"><g
                 id="g204"
                 clip-path="url(#clipPath208)"><path
                   d="m 0,-0.25 c 0.066301,0 0.129895,0.026342 0.176777,0.073223 C 0.223658,-0.129895 0.25,-0.066301 0.25,0 0.25,0.066301 0.223658,0.129895 0.176777,0.176777 0.129895,0.223658 0.066301,0.25 0,0.25 -0.066301,0.25 -0.129895,0.223658 -0.176777,0.176777 -0.223658,0.129895 -0.25,0.066301 -0.25,0 c 0,-0.066301 0.026342,-0.129895 0.073223,-0.176777 C -0.129895,-0.223658 -0.066301,-0.25 0,-0.25 Z"
                   style="fill:none;stroke:#808080;stroke-width:0.5;stroke-linecap:butt;stroke-linejoin:round;stroke-miterlimit:10;stroke-dasharray:none;stroke-opacity:1"
                   id="path210"
                   inkscape:connector-curvature="0" /></g></g><g
               id="g212"
               transform="translate(5.2429143)"><g
                 id="g214"><g
                   id="g216"
                   clip-path="url(#clipPath220)"><path
                     d="m 0,-0.25 c 0.066301,0 0.129895,0.026342 0.176777,0.073223 C 0.223658,-0.129895 0.25,-0.066301 0.25,0 0.25,0.066301 0.223658,0.129895 0.176777,0.176777 0.129895,0.223658 0.066301,0.25 0,0.25 -0.066301,0.25 -0.129895,0.223658 -0.176777,0.176777 -0.223658,0.129895 -0.25,0.066301 -0.25,0 c 0,-0.066301 0.026342,-0.129895 0.073223,-0.176777 C -0.129895,-0.223658 -0.066301,-0.25 0,-0.25 Z"
                     style="fill:none;stroke:#808080;stroke-width:0.5;stroke-linecap:butt;stroke-linejoin:round;stroke-miterlimit:10;stroke-dasharray:none;stroke-opacity:1"
                     id="path222"
                     inkscape:connector-curvature="0" /></g></g><g
                 id="g224"><g
                   id="g226"><g
                     id="g228"
                     clip-path="url(#clipPath232)"><path
                       d="m 0,-0.25 c 0.066301,0 0.129895,0.026342 0.176777,0.073223 C 0.223658,-0.129895 0.25,-0.066301 0.25,0 0.25,0.066301 0.223658,0.129895 0.176777,0.176777 0.129895,0.223658 0.066301,0.25 0,0.25 -0.066301,0.25 -0.129895,0.223658 -0.176777,0.176777 -0.223658,0.129895 -0.25,0.066301 -0.25,0 c 0,-0.066301 0.026342,-0.129895 0.073223,-0.176777 C -0.129895,-0.223658 -0.066301,-0.25 0,-0.25 Z"
                       style="fill:none;stroke:#808080;stroke-width:0.5;stroke-linecap:butt;stroke-linejoin:round;stroke-miterlimit:10;stroke-dasharray:none;stroke-opacity:1"
                       id="path234"
                       inkscape:connector-curvature="0" /></g></g><g
                   id="g236"><g
                     id="g238"><g
                       id="g240"
                       clip-path="url(#clipPath244)"><path
                         d="m 0,-0.25 c 0.066301,0 0.129895,0.026342 0.176777,0.073223 C 0.223658,-0.129895 0.25,-0.066301 0.25,0 0.25,0.066301 0.223658,0.129895 0.176777,0.176777 0.129895,0.223658 0.066301,0.25 0,0.25 -0.066301,0.25 -0.129895,0.223658 -0.176777,0.176777 -0.223658,0.129895 -0.25,0.066301 -0.25,0 c 0,-0.066301 0.026342,-0.129895 0.073223,-0.176777 C -0.129895,-0.223658 -0.066301,-0.25 0,-0.25 Z"
                         style="fill:none;stroke:#808080;stroke-width:0.5;stroke-linecap:butt;stroke-linejoin:round;stroke-miterlimit:10;stroke-dasharray:none;stroke-opacity:1"
                         id="path246"
                         inkscape:connector-curvature="0" /></g></g><g
                     id="g248"><g
                       id="g250"><g
                         id="g252"
                         clip-path="url(#clipPath256)"><path
                           d="m 0,-0.25 c 0.066301,0 0.129895,0.026342 0.176777,0.073223 C 0.223658,-0.129895 0.25,-0.066301 0.25,0 0.25,0.066301 0.223658,0.129895 0.176777,0.176777 0.129895,0.223658 0.066301,0.25 0,0.25 -0.066301,0.25 -0.129895,0.223658 -0.176777,0.176777 -0.223658,0.129895 -0.25,0.066301 -0.25,0 c 0,-0.066301 0.026342,-0.129895 0.073223,-0.176777 C -0.129895,-0.223658 -0.066301,-0.25 0,-0.25 Z"
                           style="fill:none;stroke:#808080;stroke-width:0.5;stroke-linecap:butt;stroke-linejoin:round;stroke-miterlimit:10;stroke-dasharray:none;stroke-opacity:1"
                           id="path258"
                           inkscape:connector-curvature="0" /></g></g><g
                       id="g260"><g
                         id="g262"><g
                           id="g264"
                           clip-path="url(#clipPath268)"><path
                             d="m 0,-0.25 c 0.066301,0 0.129895,0.026342 0.176777,0.073223 C 0.223658,-0.129895 0.25,-0.066301 0.25,0 0.25,0.066301 0.223658,0.129895 0.176777,0.176777 0.129895,0.223658 0.066301,0.25 0,0.25 -0.066301,0.25 -0.129895,0.223658 -0.176777,0.176777 -0.223658,0.129895 -0.25,0.066301 -0.25,0 c 0,-0.066301 0.026342,-0.129895 0.073223,-0.176777 C -0.129895,-0.223658 -0.066301,-0.25 0,-0.25 Z"
                             style="fill:none;stroke:#808080;stroke-width:0.5;stroke-linecap:butt;stroke-linejoin:round;stroke-miterlimit:10;stroke-dasharray:none;stroke-opacity:1"
                             id="path270"
                             inkscape:connector-curvature="0" /></g></g><g
                         id="g272"><g
                           id="g274"><g
                             id="g276"
                             clip-path="url(#clipPath280)"><path
                               d="m 0,-0.25 c 0.066301,0 0.129895,0.026342 0.176777,0.073223 C 0.223658,-0.129895 0.25,-0.066301 0.25,0 0.25,0.066301 0.223658,0.129895 0.176777,0.176777 0.129895,0.223658 0.066301,0.25 0,0.25 -0.066301,0.25 -0.129895,0.223658 -0.176777,0.176777 -0.223658,0.129895 -0.25,0.066301 -0.25,0 c 0,-0.066301 0.026342,-0.129895 0.073223,-0.176777 C -0.129895,-0.223658 -0.066301,-0.25 0,-0.25 Z"
                               style="fill:none;stroke:#808080;stroke-width:0.5;stroke-linecap:butt;stroke-linejoin:round;stroke-miterlimit:10;stroke-dasharray:none;stroke-opacity:1"
                               id="path282"
                               inkscape:connector-curvature="0" /></g></g><g
                           id="g284"><g
                             id="g286"><g
                               id="g288"
                               clip-path="url(#clipPath292)"><path
                                 d="m 0,-0.25 c 0.066301,0 0.129895,0.026342 0.176777,0.073223 C 0.223658,-0.129895 0.25,-0.066301 0.25,0 0.25,0.066301 0.223658,0.129895 0.176777,0.176777 0.129895,0.223658 0.066301,0.25 0,0.25 -0.066301,0.25 -0.129895,0.223658 -0.176777,0.176777 -0.223658,0.129895 -0.25,0.066301 -0.25,0 c 0,-0.066301 0.026342,-0.129895 0.073223,-0.176777 C -0.129895,-0.223658 -0.066301,-0.25 0,-0.25 Z"
                                 style="fill:none;stroke:#808080;stroke-width:0.5;stroke-linecap:butt;stroke-linejoin:round;stroke-miterlimit:10;stroke-dasharray:none;stroke-opacity:1"
                                 id="path294"
                                 inkscape:connector-curvature="0" /></g></g><g
                             id="g296"><g
                               id="g298"><g
                                 id="g300"
                                 clip-path="url(#clipPath304)"><path
                                   d="m 0,-0.25 c 0.066301,0 0.129895,0.026342 0.176777,0.073223 C 0.223658,-0.129895 0.25,-0.066301 0.25,0 0.25,0.066301 0.223658,0.129895 0.176777,0.176777 0.129895,0.223658 0.066301,0.25 0,0.25 -0.066301,0.25 -0.129895,0.223658 -0.176777,0.176777 -0.223658,0.129895 -0.25,0.066301 -0.25,0 c 0,-0.066301 0.026342,-0.129895 0.073223,-0.176777 C -0.129895,-0.223658 -0.066301,-0.25 0,-0.25 Z"
                                   style="fill:none;stroke:#808080;stroke-width:0.5;stroke-linecap:butt;stroke-linejoin:round;stroke-miterlimit:10;stroke-dasharray:none;stroke-opacity:1"
                                   id="path306"
                                   inkscape:connector-curvature="0" /></g></g></g></g></g></g></g></g></g></g></g></g></g></g><g
       id="g308"><g
         id="g310"
         clip-path="url(#clipPath314)"><path
           d="m 63.400483,71.604025 v 4.2112"
           style="fill:none;stroke:#000000;stroke-width:0.80000001;stroke-linecap:square;stroke-linejoin:round;stroke-miterlimit:10;stroke-dasharray:none;stroke-opacity:1"
           id="path316"
           inkscape:connector-curvature="0" /></g></g><g
       id="g318"><path
         d="m 38.309375,28.965625 v 52.64"
         style="fill:none;stroke:#000000;stroke-width:0.60000002;stroke-linecap:square;stroke-linejoin:miter;stroke-miterlimit:10;stroke-dasharray:none;stroke-opacity:1"
         id="path320"
         inkscape:connector-curvature="0" /><path
         d="M 38.309375,28.965625 H 105.71827"
         style="fill:none;stroke:#000000;stroke-width:0.60000002;stroke-linecap:square;stroke-linejoin:miter;stroke-miterlimit:10;stroke-dasharray:none;stroke-opacity:1"
         id="path322"
         inkscape:connector-curvature="0" /><path
         d="m 121.50437,28.965625 h 67.4089 v 52.64 h -67.4089 z"
         style="fill:#ffffff;fill-opacity:1;fill-rule:nonzero;stroke:none"
         id="path330"
         inkscape:connector-curvature="0" /></g><g
       id="g332"><g
         id="g334"
         clip-path="url(#clipPath338)"><path
           d="m 121.50437,40.213488 h 67.22166 v 0"
           style="fill:none;stroke:#cccccc;stroke-width:1;stroke-linecap:square;stroke-linejoin:round;stroke-miterlimit:10;stroke-dasharray:none;stroke-opacity:1"
           id="path340"
           inkscape:connector-curvature="0" /></g></g><g
       id="g342"><g
         id="g344"
         clip-path="url(#clipPath348)"><path
           d="m 121.50439,33.073043 v -2.266802 l 0.3745,0.08652 0.37449,0.09353 0.37449,0.101056 0.3745,0.109126 0.37449,0.117771 0.3745,0.127019 0.37449,0.136902 0.37449,0.147447 0.3745,0.15868 0.37449,0.170626 0.3745,0.183309 0.37449,0.196745 0.37449,0.21095 0.3745,0.225934 0.37449,0.241701 0.3745,0.258246 0.37449,0.275562 0.37449,0.293629 0.3745,0.312421 0.37449,0.331901 0.37449,0.352022 0.3745,0.372725 0.37449,0.393942 0.3745,0.415589 0.37449,0.437574 0.37449,0.459793 0.3745,0.482124 0.37449,0.504441 0.3745,0.526602 0.37449,0.548454 0.37449,0.56984 0.3745,0.590587 0.37449,0.610519 0.3745,0.629454 0.37449,0.647205 0.37449,0.663582 0.3745,0.678394 0.37449,0.691455 0.37449,0.702573 0.3745,0.711568 0.37449,0.718263 0.3745,0.722485 0.37449,0.724072 0.37449,0.722867 0.3745,0.718722 0.37449,0.711492 0.3745,0.701038 0.37449,0.687214 0.37449,0.669874 0.3745,0.648845 0.37449,0.623923 0.37449,0.594845 0.3745,0.561253 0.37449,0.522641 0.3745,0.478271 0.37449,0.427054 0.37449,0.367367 0.3745,0.29684 0.37449,0.212166 0.3745,0.109247 0.37449,-0.01564 0.37449,-0.162776 0.3745,-0.324863 0.37449,-0.486488 0.3745,-0.630957 0.37449,-0.748602 0.37449,-0.838323 0.3745,-0.903779 0.37449,-0.949689 0.37449,-0.980156 0.3745,-0.998311 0.37449,-1.006458 0.3745,-1.006311 0.37449,-0.999178 0.37449,-0.986106 0.3745,-0.967957 0.37449,-0.945479 0.3745,-0.919332 0.37449,-0.890112 0.37449,-0.858364 0.3745,-0.824591 0.37449,-0.789258 0.37449,-0.752791 0.3745,-0.715583 0.37449,-0.677996 0.3745,-0.64035 0.37449,-0.60294 0.37449,-0.566024 0.3745,-0.529827 0.37449,-0.494547 0.3745,-0.460348 0.37449,-0.427368 0.37449,-0.395714 0.3745,-0.365475 0.37449,-0.33671 0.3745,-0.309462 0.37449,-0.283748 0.37449,-0.259576 0.3745,-0.236934 0.37449,-0.215797 0.3745,-0.196131 0.37449,-0.177889 0.37449,-0.161022 0.3745,-0.145468 0.37449,-0.131167 0.37449,-0.118052 0.3745,-0.106054 0.37449,-0.0951 0.3745,-0.08513 0.37449,-0.07607 0.37449,-0.06785 0.3745,-0.06042 0.37449,-0.05369 0.3745,-0.04762 0.37449,-0.04215 0.37449,-0.03721 0.3745,-0.03278 0.37449,-0.02878 0.37449,-0.02519 0.3745,-0.02195 0.37449,-0.01903 0.3745,-0.01639 0.37449,-0.01401 0.37449,-0.01186 0.3745,-0.0099 0.37449,-0.0081 0.3745,-0.0065 0.37449,-0.0049 0.37449,-0.0035 0.3745,-0.0022 0.37449,-9.71e-4 0.37449,2.06e-4 0.3745,0.0013 0.37449,0.0024 0.3745,0.0035 0.37449,0.0045 0.37449,0.0056 0.3745,0.0066 0.37449,0.0076 0.3745,0.0087 0.37449,0.0097 0.37449,0.01083 0.3745,0.01195 0.37449,0.01309 0.3745,0.01427 0.37449,0.01548 0.37449,0.01672 0.3745,0.01799 0.37449,0.01927 0.37449,0.02056 0.3745,0.02184 0.37449,0.02308 0.3745,0.02426 0.37449,0.02535 0.3745,0.02628 0.37449,0.02703 0.37449,0.02755 0.3745,0.02783 0.37449,0.02787 0.37449,0.02774 0.3745,0.02753 0.37449,0.02735 0.3745,0.02734 0.37449,0.02759 0.37449,0.02818 0.3745,0.02914 0.37449,0.03048 0.37449,0.03219 0.3745,0.03426 0.37449,0.03669 0.3745,0.03945 0.37449,0.04254 0.37449,0.04596 0.3745,0.04972 0.37449,0.05382 0.3745,0.05827 0.37449,0.0631 0.37449,0.06831 0.3745,0.07394 v 2.08731 0 l -0.3745,-0.241416 -0.37449,-0.224354 -0.37449,-0.20827 -0.3745,-0.193118 -0.37449,-0.178853 -0.3745,-0.165422 -0.37449,-0.152769 -0.37449,-0.140839 -0.3745,-0.129568 -0.37449,-0.11889 -0.3745,-0.10874 -0.37449,-0.09904 -0.37449,-0.08973 -0.3745,-0.08073 -0.37449,-0.07198 -0.37449,-0.06345 -0.3745,-0.05512 -0.37449,-0.04701 -0.3745,-0.03918 -0.37449,-0.03171 -0.37449,-0.02468 -0.3745,-0.01814 -0.37449,-0.01213 -0.37449,-0.0066 -0.3745,-0.0015 -0.37449,0.0032 -0.3745,0.0076 -0.37449,0.01185 -0.3745,0.01591 -0.37449,0.01988 -0.37449,0.0238 -0.3745,0.02773 -0.37449,0.03171 -0.37449,0.03576 -0.3745,0.03993 -0.37449,0.04424 -0.3745,0.04871 -0.37449,0.05338 -0.37449,0.05828 -0.3745,0.06342 -0.37449,0.06883 -0.3745,0.07454 -0.37449,0.08056 -0.37449,0.08694 -0.3745,0.09368 -0.37449,0.100824 -0.3745,0.108386 -0.37449,0.116396 -0.37449,0.124878 -0.3745,0.133856 -0.37449,0.143355 -0.37449,0.153397 -0.3745,0.164007 -0.37449,0.175203 -0.3745,0.187007 -0.37449,0.199433 -0.37449,0.212499 -0.3745,0.226213 -0.37449,0.240586 -0.3745,0.255618 -0.37449,0.271313 -0.37449,0.287659 -0.3745,0.304648 -0.37449,0.32226 -0.37449,0.340468 -0.3745,0.35924 -0.37449,0.378532 -0.3745,0.398293 -0.37449,0.418465 -0.37449,0.438975 -0.3745,0.459743 -0.37449,0.480679 -0.3745,0.501682 -0.37449,0.522639 -0.37449,0.543429 -0.3745,0.563919 -0.37449,0.583968 -0.37449,0.603428 -0.3745,0.62214 -0.37449,0.639939 -0.3745,0.65666 -0.37449,0.672125 -0.37449,0.686164 -0.3745,0.6986 -0.37449,0.709262 -0.3745,0.717982 -0.37449,0.724598 -0.37449,0.728959 -0.3745,0.730923 -0.37449,0.730362 -0.3745,0.72717 -0.37449,0.721249 -0.37449,0.712533 -0.3745,0.700972 -0.37449,0.686544 -0.3745,0.669254 -0.37449,0.649138 -0.37449,0.626261 -0.3745,0.600724 -0.37449,0.572667 -0.37449,0.542267 -0.3745,0.509751 -0.37449,0.475397 -0.3745,0.439552 -0.37449,0.402641 -0.37449,0.365198 -0.3745,0.327906 -0.37449,0.291655 -0.3745,0.257633 -0.37449,0.227476 -0.37449,0.203453 -0.3745,0.188709 -0.37449,0.187408 -0.37449,0.204394 -0.3745,0.243499 -0.37449,0.303865 -0.3745,0.376123 -0.37449,0.443939 -0.37449,0.492321 -0.3745,0.514453 -0.37449,0.511155 -0.3745,0.486734 -0.37449,0.445929 -0.37449,0.392718 -0.3745,0.330183 -0.37449,0.260676 -0.3745,0.186039 -0.37449,0.107762 -0.37449,0.0271 -0.3745,-0.05484 -0.37449,-0.137098 -0.37449,-0.21878 -0.3745,-0.299081 -0.37449,-0.377267 -0.3745,-0.452667 -0.37449,-0.52468 -0.37449,-0.592772 -0.3745,-0.656481 -0.37449,-0.71541 -0.3745,-0.769238 -0.37449,-0.817715 -0.37449,-0.860661 -0.3745,-0.897964 -0.37449,-0.929581 -0.37449,-0.955533 -0.3745,-0.975894 -0.37449,-0.990803 -0.3745,-1.000438 -0.37449,-1.005028 -0.37449,-1.004835 -0.3745,-1.000154 -0.37449,-0.991307 -0.3745,-0.97863 -0.37449,-0.962477 -0.37449,-0.943209 -0.3745,-0.921184 -0.37449,-0.896766 -0.3745,-0.870304 -0.37449,-0.842141 -0.37449,-0.812603 -0.3745,-0.782004 -0.37449,-0.750634 -0.37449,-0.718763 -0.3745,-0.686644 -0.37449,-0.654502 -0.3745,-0.622542 -0.37449,-0.590945 -0.37449,-0.559871 -0.3745,-0.529458 -0.37449,-0.499822 -0.3745,-0.471061 -0.37449,-0.443252 -0.37449,-0.416458 -0.3745,-0.390724 -0.37449,-0.366082 -0.3745,-0.342549 -0.37449,-0.320132 -0.37449,-0.298828 -0.3745,-0.278621 z"
           style="fill:#808080;fill-opacity:0.2;fill-rule:nonzero;stroke:#808080;stroke-width:0.80000001;stroke-linecap:butt;stroke-linejoin:round;stroke-miterlimit:10;stroke-dasharray:none;stroke-opacity:0.2"
           id="path350"
           inkscape:connector-curvature="0" /></g></g><g
       id="g352"><path
         d="m 121.50437,28.965625 v -3.5"
         style="fill:#323034;fill-opacity:1;fill-rule:nonzero;stroke:#323034;stroke-width:0.80000001;stroke-linecap:butt;stroke-linejoin:round;stroke-miterlimit:10;stroke-dasharray:none;stroke-opacity:1"
         id="path354"
         inkscape:connector-curvature="0" /><g
         id="g356"
         transform="translate(119.50437,18.0125)"><text
           transform="matrix(1,0,0,-1,0,0.28125)"
           style="font-variant:normal;font-weight:normal;font-size:5px;font-family:'DejaVu Sans';-inkscape-font-specification:DejaVuSans;writing-mode:lr-tb;fill:#323034;fill-opacity:1;fill-rule:nonzero;stroke:none"
           id="text360"><tspan
             x="0"
             y="0"
             id="tspan358">0</tspan></text>
</g><path
         d="m 138.3566,28.965625 v -3.5"
         style="fill:#323034;fill-opacity:1;fill-rule:nonzero;stroke:#323034;stroke-width:0.80000001;stroke-linecap:butt;stroke-linejoin:round;stroke-miterlimit:10;stroke-dasharray:none;stroke-opacity:1"
         id="path362"
         inkscape:connector-curvature="0" /><g
         id="g364"
         transform="translate(134.8566,18.0125)"><text
           transform="matrix(1,0,0,-1,0,0.28125)"
           style="font-variant:normal;font-weight:normal;font-size:5px;font-family:'DejaVu Sans';-inkscape-font-specification:DejaVuSans;writing-mode:lr-tb;fill:#323034;fill-opacity:1;fill-rule:nonzero;stroke:none"
           id="text368"><tspan
             x="0 3.1811523"
             y="0"
             sodipodi:role="line"
             id="tspan366">90</tspan></text>
</g><path
         d="m 155.20882,28.965625 v -3.5"
         style="fill:#323034;fill-opacity:1;fill-rule:nonzero;stroke:#323034;stroke-width:0.80000001;stroke-linecap:butt;stroke-linejoin:round;stroke-miterlimit:10;stroke-dasharray:none;stroke-opacity:1"
         id="path370"
         inkscape:connector-curvature="0" /><g
         id="g372"
         transform="translate(150.20882,18.0125)"><text
           transform="matrix(1,0,0,-1,0,0.28125)"
           style="font-variant:normal;font-weight:normal;font-size:5px;font-family:'DejaVu Sans';-inkscape-font-specification:DejaVuSans;writing-mode:lr-tb;fill:#323034;fill-opacity:1;fill-rule:nonzero;stroke:none"
           id="text376"><tspan
             x="0 3.1811523 6.3623047"
             y="0"
             sodipodi:role="line"
             id="tspan374">180</tspan></text>
</g><path
         d="m 172.06105,28.965625 v -3.5"
         style="fill:#323034;fill-opacity:1;fill-rule:nonzero;stroke:#323034;stroke-width:0.80000001;stroke-linecap:butt;stroke-linejoin:round;stroke-miterlimit:10;stroke-dasharray:none;stroke-opacity:1"
         id="path378"
         inkscape:connector-curvature="0" /><g
         id="g380"
         transform="translate(167.06105,18.0125)"><text
           transform="matrix(1,0,0,-1,0,0.28125)"
           style="font-variant:normal;font-weight:normal;font-size:5px;font-family:'DejaVu Sans';-inkscape-font-specification:DejaVuSans;writing-mode:lr-tb;fill:#323034;fill-opacity:1;fill-rule:nonzero;stroke:none"
           id="text384"><tspan
             x="0 3.1811523 6.3623047"
             y="0"
             sodipodi:role="line"
             id="tspan382">270</tspan></text>
</g><path
         d="m 188.91327,28.965625 v -3.5"
         style="fill:#323034;fill-opacity:1;fill-rule:nonzero;stroke:#323034;stroke-width:0.80000001;stroke-linecap:butt;stroke-linejoin:round;stroke-miterlimit:10;stroke-dasharray:none;stroke-opacity:1"
         id="path386"
         inkscape:connector-curvature="0" /><g
         id="g388"
         transform="translate(183.91327,18.0125)"><text
           transform="matrix(1,0,0,-1,0,0.28125)"
           style="font-variant:normal;font-weight:normal;font-size:5px;font-family:'DejaVu Sans';-inkscape-font-specification:DejaVuSans;writing-mode:lr-tb;fill:#323034;fill-opacity:1;fill-rule:nonzero;stroke:none"
           id="text392"><tspan
             x="0 3.1811523 6.3623047"
             y="0"
             sodipodi:role="line"
             id="tspan390">360</tspan></text>
</g><path
         d="m 129.93049,28.965625 v -2"
         style="fill:#323034;fill-opacity:1;fill-rule:nonzero;stroke:#323034;stroke-width:0.60000002;stroke-linecap:butt;stroke-linejoin:round;stroke-miterlimit:10;stroke-dasharray:none;stroke-opacity:1"
         id="path394"
         inkscape:connector-curvature="0" /><path
         d="m 146.78271,28.965625 v -2"
         style="fill:#323034;fill-opacity:1;fill-rule:nonzero;stroke:#323034;stroke-width:0.60000002;stroke-linecap:butt;stroke-linejoin:round;stroke-miterlimit:10;stroke-dasharray:none;stroke-opacity:1"
         id="path396"
         inkscape:connector-curvature="0" /><path
         d="m 163.63494,28.965625 v -2"
         style="fill:#323034;fill-opacity:1;fill-rule:nonzero;stroke:#323034;stroke-width:0.60000002;stroke-linecap:butt;stroke-linejoin:round;stroke-miterlimit:10;stroke-dasharray:none;stroke-opacity:1"
         id="path398"
         inkscape:connector-curvature="0" /><path
         d="m 180.48716,28.965625 v -2"
         style="fill:#323034;fill-opacity:1;fill-rule:nonzero;stroke:#323034;stroke-width:0.60000002;stroke-linecap:butt;stroke-linejoin:round;stroke-miterlimit:10;stroke-dasharray:none;stroke-opacity:1"
         id="path400"
         inkscape:connector-curvature="0" /><g
         id="g402"
         transform="translate(126.68539,8.653125)"><text
           transform="scale(1,-1)"
           style="font-variant:normal;font-weight:normal;font-size:7px;font-family:'DejaVu Sans';-inkscape-font-specification:DejaVuSans;writing-mode:lr-tb;fill:#000000;fill-opacity:1;fill-rule:nonzero;stroke:none"
           id="text406"><tspan
             x="0 5.2639999 9.7019997 14.007 16.233 21.021 25.459 29.903999 31.85 36.154999 38.381001 41.111 45.556 49.861 54.306"
             y="0"
             sodipodi:role="line"
             id="tspan404">Hue Angle (deg)</tspan></text>
</g><path
         d="m 121.50437,28.965625 h -3.5"
         style="fill:#323034;fill-opacity:1;fill-rule:nonzero;stroke:#323034;stroke-width:0.80000001;stroke-linecap:butt;stroke-linejoin:round;stroke-miterlimit:10;stroke-dasharray:none;stroke-opacity:1"
         id="path408"
         inkscape:connector-curvature="0" /><path
         d="m 121.50437,49.211779 h -3.5"
         style="fill:#323034;fill-opacity:1;fill-rule:nonzero;stroke:#323034;stroke-width:0.80000001;stroke-linecap:butt;stroke-linejoin:round;stroke-miterlimit:10;stroke-dasharray:none;stroke-opacity:1"
         id="path410"
         inkscape:connector-curvature="0" /><path
         d="m 121.50437,69.457933 h -3.5"
         style="fill:#323034;fill-opacity:1;fill-rule:nonzero;stroke:#323034;stroke-width:0.80000001;stroke-linecap:butt;stroke-linejoin:round;stroke-miterlimit:10;stroke-dasharray:none;stroke-opacity:1"
         id="path412"
         inkscape:connector-curvature="0" /></g><g
       id="g414"><g
         id="g416"
         clip-path="url(#clipPath420)"><path
           d="m 121.50439,31.939642 1.49798,0.815183 1.49797,1.072827 1.49798,1.384786 1.49798,1.745732 1.49797,2.138759 1.49798,2.532336 1.87247,3.643155 5.24291,10.690402 1.12348,1.753848 1.12348,1.356542 0.74899,0.650253 0.74899,0.431149 0.74899,0.205027 0.74898,-0.02211 0.74899,-0.244442 0.74899,-0.456584 1.12348,-1.049027 1.12348,-1.426591 1.49798,-2.354603 2.24696,-4.106919 3.74494,-6.970714 1.87247,-3.058388 1.87247,-2.613858 1.49798,-1.749651 1.49797,-1.455145 1.49798,-1.184543 1.49797,-0.94615 1.87247,-0.901406 1.87247,-0.651399 2.24696,-0.533581 2.62146,-0.378087 2.99595,-0.208951 3.37045,-0.02037 2.99595,0.173954 2.62145,0.354674 2.24697,0.532424 1.87247,0.681727 v 0"
           style="fill:none;stroke:#808080;stroke-width:1;stroke-linecap:square;stroke-linejoin:round;stroke-miterlimit:10;stroke-dasharray:none;stroke-opacity:1"
           id="path422"
           inkscape:connector-curvature="0" /></g></g><g
       id="g424"><g
         id="g426"
         clip-path="url(#clipPath430)"><path
           d="m 140.60358,71.604025 v 4.2112 h 6.46002 v -4.2112 h -6.46002"
           style="fill:none;stroke:#808080;stroke-width:0.80000001;stroke-linecap:square;stroke-linejoin:round;stroke-miterlimit:10;stroke-dasharray:none;stroke-opacity:1"
           id="path432"
           inkscape:connector-curvature="0" /></g></g><g
       id="g434"><g
         id="g436"
         clip-path="url(#clipPath440)"><path
           d="m 140.60358,73.709625 h -4.11943"
           style="fill:none;stroke:#808080;stroke-width:0.80000001;stroke-linecap:square;stroke-linejoin:round;stroke-miterlimit:10;stroke-dasharray:none;stroke-opacity:1"
           id="path442"
           inkscape:connector-curvature="0" /></g></g><g
       id="g444"><g
         id="g446"
         clip-path="url(#clipPath450)"><path
           d="m 147.0636,73.709625 h 2.90233"
           style="fill:none;stroke:#808080;stroke-width:0.80000001;stroke-linecap:square;stroke-linejoin:round;stroke-miterlimit:10;stroke-dasharray:none;stroke-opacity:1"
           id="path452"
           inkscape:connector-curvature="0" /></g></g><g
       id="g454"><g
         id="g456"
         clip-path="url(#clipPath460)"><path
           d="m 136.48415,72.656825 v 2.1056"
           style="fill:none;stroke:#808080;stroke-width:0.80000001;stroke-linecap:square;stroke-linejoin:round;stroke-miterlimit:10;stroke-dasharray:none;stroke-opacity:1"
           id="path462"
           inkscape:connector-curvature="0" /></g></g><g
       id="g464"><g
         id="g466"
         clip-path="url(#clipPath470)"><path
           d="m 149.96593,72.656825 v 2.1056"
           style="fill:none;stroke:#808080;stroke-width:0.80000001;stroke-linecap:square;stroke-linejoin:round;stroke-miterlimit:10;stroke-dasharray:none;stroke-opacity:1"
           id="path472"
           inkscape:connector-curvature="0" /></g></g><g
       id="g474"><g
         id="g476"
         clip-path="url(#clipPath480)"><path
           d="m 141.16532,71.604025 v 4.2112"
           style="fill:none;stroke:#000000;stroke-width:0.80000001;stroke-linecap:square;stroke-linejoin:round;stroke-miterlimit:10;stroke-dasharray:none;stroke-opacity:1"
           id="path482"
           inkscape:connector-curvature="0" /></g></g><g
       id="g484"><path
         d="m 121.50437,28.965625 v 52.64"
         style="fill:none;stroke:#000000;stroke-width:0.60000002;stroke-linecap:square;stroke-linejoin:miter;stroke-miterlimit:10;stroke-dasharray:none;stroke-opacity:1"
         id="path486"
         inkscape:connector-curvature="0" /><path
         d="m 121.50437,28.965625 h 67.4089"
         style="fill:none;stroke:#000000;stroke-width:0.60000002;stroke-linecap:square;stroke-linejoin:miter;stroke-miterlimit:10;stroke-dasharray:none;stroke-opacity:1"
         id="path488"
         inkscape:connector-curvature="0" /></g></g></svg>